<?xml version="1.0" encoding="UTF-8"?>
<svg version="1.1" xmlns="http://www.w3.org/2000/svg" width="1024" height="1024">
<path d="M0 0 C337.92 0 675.84 0 1024 0 C1024 337.92 1024 675.84 1024 1024 C686.08 1024 348.16 1024 0 1024 C0 686.08 0 348.16 0 0 Z " fill="#EBE5E1" transform="translate(0,0)"/>
<path d="M0 0 C1.1651413 -0.00846954 2.33028259 -0.01693909 3.5307312 -0.02566528 C7.37305696 -0.04901712 11.21498176 -0.05005773 15.05737305 -0.04882812 C17.05874805 -0.05413485 19.06012319 -0.05944851 21.06149548 -0.06569529 C27.35174376 -0.08489561 33.64185936 -0.08782597 39.93212891 -0.08105469 C46.3994089 -0.0744203 52.86611763 -0.09726098 59.33328182 -0.13436842 C64.90469158 -0.16516427 70.47591855 -0.1764147 76.04741162 -0.1725316 C79.36665548 -0.17047376 82.68535842 -0.1780595 86.0045414 -0.20042419 C89.7118165 -0.22265333 93.41772803 -0.21288916 97.125 -0.1953125 C98.20948929 -0.20857574 99.29397858 -0.22183899 100.41133118 -0.23550415 C107.62594654 -0.15635785 113.27735092 1.24329003 119.2565918 5.41992188 C121.60013943 7.92359004 123.51830627 10.466011 125.2565918 13.41992188 C125.60547895 13.96801891 125.95436611 14.51611595 126.31382561 15.08082199 C127.61579751 18.31114819 127.52576865 21.38292536 127.49710083 24.81036377 C127.49880968 25.556988 127.50051853 26.30361223 127.50227916 27.07286143 C127.5055745 29.57569003 127.49456972 32.07825077 127.48364258 34.58105469 C127.48307847 36.37472528 127.48339501 38.16839633 127.48452759 39.96206665 C127.48510213 44.8336156 127.47333137 49.70506635 127.45937967 54.57659245 C127.44688925 59.66684028 127.44570315 64.75709028 127.44332886 69.84735107 C127.43710913 79.48746591 127.42069162 89.12753546 127.40062988 98.76763034 C127.37828623 109.74211497 127.36728131 120.71660175 127.35723901 131.69110346 C127.33632584 154.26740223 127.30073807 176.84365761 127.2565918 199.41992188 C132.8665918 199.41992188 138.4765918 199.41992188 144.2565918 199.41992188 C143.2665918 197.10992187 142.2765918 194.79992187 141.2565918 192.41992188 C140.91601562 189.42211914 140.91601562 189.42211914 140.96362305 186.48632812 C140.97329102 185.42607422 140.98295898 184.36582031 140.99291992 183.2734375 C141.01805664 182.18740234 141.04319336 181.10136719 141.0690918 179.98242188 C141.08262695 178.86931641 141.09616211 177.75621094 141.11010742 176.609375 C141.14526182 173.87904976 141.19447073 171.14974444 141.2565918 168.41992188 C142.9065918 168.41992188 144.5565918 168.41992188 146.2565918 168.41992188 C146.25290462 167.81915581 146.24921745 167.21838974 146.24541855 166.59941864 C146.15695427 151.95919225 146.09082721 137.31898168 146.04934311 122.67855072 C146.02874672 115.59842815 146.00068251 108.51848436 145.95483398 101.43847656 C145.91059953 94.60443938 145.88744617 87.77058797 145.87708282 80.93641663 C145.86969846 78.33054178 145.85527858 75.72467696 145.83367157 73.11888123 C145.80458793 69.46575049 145.80063806 65.81338434 145.80249023 62.16015625 C145.78810913 61.08553131 145.77372803 60.01090637 145.75891113 58.90371704 C145.79964868 51.4664286 146.97860846 46.06443078 152.1081543 40.36132812 C152.69338867 39.90628906 153.27862305 39.45125 153.8815918 38.98242188 C154.47198242 38.50933594 155.06237305 38.03625 155.6706543 37.54882812 C159.28300903 34.97747217 162.60394882 35.26885734 166.88418579 35.26602173 C167.68062638 35.26163947 168.47706696 35.25725722 169.29764211 35.25274217 C171.98138939 35.23932788 174.66510381 35.23316937 177.34887695 35.22705078 C179.26720326 35.21915176 181.18552808 35.21088294 183.10385132 35.20227051 C189.41777115 35.17602296 195.73169771 35.1607382 202.0456543 35.14648438 C204.21794006 35.14112545 206.39022577 35.13574794 208.56251144 35.13035202 C217.59901415 35.10871756 226.63551506 35.08998115 235.67203712 35.07872963 C248.62726178 35.0624938 261.58218633 35.02933119 274.53729784 34.97232878 C283.64312039 34.93362848 292.74886267 34.9140967 301.8547653 34.90880907 C307.29447348 34.90515519 312.73386178 34.89313019 318.17348099 34.86070633 C323.29368002 34.83062508 328.41336564 34.82431423 333.53363419 34.83609009 C335.41053684 34.83631083 337.28746331 34.82800528 339.16428375 34.81043625 C341.73250282 34.78770848 344.2988659 34.79605538 346.86709595 34.81192017 C347.97403429 34.79109703 347.97403429 34.79109703 349.10333502 34.76985323 C354.86891617 34.85724905 358.74561178 36.88599063 363.2565918 40.41992188 C365.09643555 42.55273438 365.09643555 42.55273438 366.1940918 44.54492188 C366.57436523 45.2075 366.95463867 45.87007812 367.34643555 46.55273438 C368.97942179 49.90280915 369.38078235 52.55013846 369.37684631 56.22245789 C369.37890831 57.70532791 369.37890831 57.70532791 369.38101196 59.21815491 C369.37741669 60.30140549 369.37382141 61.38465607 369.37011719 62.50073242 C369.37026321 63.64233826 369.37040924 64.78394409 369.37055969 65.96014404 C369.36986173 69.74232874 369.36207471 73.5244645 369.35424805 77.30664062 C369.35238346 79.92552158 369.35095975 82.54440288 369.34996033 85.1632843 C369.34685133 91.35744554 369.33864373 97.55158915 369.32861084 103.74574262 C369.31743633 110.79767073 369.31193588 117.84959968 369.3069154 124.90153444 C369.29646077 139.40767268 369.27886965 153.91379703 369.2565918 168.41992188 C371.5665918 168.41992188 373.8765918 168.41992188 376.2565918 168.41992188 C376.2565918 172.37992188 376.2565918 176.33992187 376.2565918 180.41992188 C380.2165918 180.41992188 384.1765918 180.41992188 388.2565918 180.41992188 C388.39713989 178.87872681 388.39713989 178.87872681 388.54052734 177.30639648 C389.35604486 170.82895612 391.10552282 164.55251913 392.71362305 158.23632812 C393.06178691 156.85370558 393.40949017 155.47096697 393.75675964 154.08811951 C394.67011264 150.45555193 395.58889211 146.82438027 396.50909424 143.19354248 C397.96944083 137.42744157 399.42113341 131.6591555 400.87347031 125.89103317 C401.39755684 123.81296857 401.92394851 121.73549849 402.45071411 119.65811157 C403.86843875 114.05400577 405.27503479 108.45170213 406.51977539 102.80615234 C406.78246468 101.62109352 406.78246468 101.62109352 407.05046082 100.41209412 C407.4724614 98.47069324 407.8767243 96.52545729 408.27880859 94.57983398 C410.07429941 88.77732771 413.28060066 84.81815973 418.2565918 81.41992188 C422.16682232 79.53336522 425.3398544 79.15462349 429.6640625 79.11352539 C431.57678703 79.0895443 431.57678703 79.0895443 433.52815247 79.06507874 C434.91288857 79.05870092 436.29762951 79.05330853 437.68237305 79.04882812 C439.1133788 79.03985238 440.54438364 79.03073037 441.97538757 79.02146912 C444.97205885 79.00500678 447.96861879 78.99728421 450.96533203 78.99438477 C454.7885937 78.98900704 458.61079577 78.95134236 462.43375874 78.9056406 C465.38935583 78.87576491 468.34470112 78.86865894 471.30043602 78.86765862 C472.70895421 78.86347622 474.11747454 78.85112196 475.52584267 78.83014107 C482.82266789 78.73009737 488.75281237 78.65425156 494.82633972 83.02232361 C497.88756853 86.01366209 499.12322548 89.20001797 499.37768555 93.43554688 C499.05668963 98.86141335 497.09843256 101.66742625 493.2565918 105.41992188 C490.05675411 107.43077421 487.59391607 107.66448881 483.84545898 107.64697266 C482.7646405 107.64682159 481.68382202 107.64667053 480.57025146 107.64651489 C479.40971252 107.63619232 478.24917358 107.62586975 477.0534668 107.61523438 C475.26407684 107.61098953 475.26407684 107.61098953 473.4385376 107.60665894 C469.62778704 107.5954624 465.81727135 107.5703584 462.0065918 107.54492188 C459.42326186 107.53489141 456.83992823 107.52576568 454.2565918 107.51757812 C447.9231783 107.49552477 441.58990183 107.46205223 435.2565918 107.41992188 C435.04252686 108.2885083 434.82846191 109.15709473 434.60791016 110.05200195 C432.52605273 118.44316745 430.3837084 126.81691579 428.19799805 135.18164062 C427.92490814 136.22732208 427.65181824 137.27300354 427.37045288 138.35037231 C426.23790099 142.68474356 425.10451257 147.01889175 423.96826172 151.35229492 C421.08960709 162.33635089 418.24454765 173.31977538 415.65893555 184.37695312 C414.00643221 191.43934459 412.18922369 198.42987646 410.21305847 205.40808105 C407.28149404 215.79787888 404.66250228 226.26949955 402.0065918 236.73242188 C401.70935211 237.90075562 401.41211243 239.06908936 401.10586548 240.27282715 C395.5834873 261.990465 390.21760625 283.74545144 384.87985229 305.50906372 C378.87180287 330.00165186 372.72490772 354.45698722 366.47981834 378.89019775 C365.6401375 382.17590567 364.8017968 385.46195414 363.96362305 388.74804688 C363.64546631 389.99444946 363.32730957 391.24085205 362.99951172 392.52502441 C360.65015362 401.76951651 358.4000801 411.03547753 356.25007629 420.32843018 C351.85661903 439.04660903 344.2416993 457.08307295 330.0456543 470.49414062 C329.49224365 471.02193115 328.93883301 471.54972168 328.36865234 472.09350586 C327.27237674 473.12552971 326.15956361 474.14032863 325.02929688 475.13500977 C323.27480124 476.70039011 323.27480124 476.70039011 321.2565918 479.41992188 C321.29529091 482.41463522 321.29529091 482.41463522 322.2565918 485.41992188 C323.13616578 499.69608429 320.46902889 510.35193609 311.51049805 521.61523438 C304.35435174 529.44087462 294.96403384 534.06654094 284.40112305 534.62304688 C270.55815683 534.8780405 260.90742347 533.03591938 250.2565918 523.41992188 C241.03888603 513.35301374 237.45815212 502.59650318 237.8737793 489.03320312 C239.06768766 477.76417006 245.02053152 467.83733207 253.12768555 460.05664062 C263.82053872 451.83589662 275.20148778 450.22565418 288.2565918 451.41992188 C293.2561739 452.58476107 297.57720217 454.25825819 301.8034668 457.18164062 C304.12362974 458.68904333 304.12362974 458.68904333 306.28393555 457.90820312 C308.7761838 456.02791286 310.74809207 453.94474306 312.8190918 451.60742188 C313.58350586 450.75535156 314.34791992 449.90328125 315.13549805 449.02539062 C317.12250118 446.58463355 318.67097218 444.12999803 320.2565918 441.41992188 C319.65923625 441.41932479 319.0618807 441.4187277 318.44642347 441.41811252 C282.99776681 441.38217444 247.54920209 441.32546787 212.10062471 441.24200092 C207.83889338 441.23198414 203.57716166 441.2221399 199.31542969 441.21240234 C198.46703913 441.21046097 197.61864858 441.2085196 196.74454922 441.2065194 C183.02948419 441.1755461 169.31443586 441.15853181 155.59934246 441.14672765 C141.51361796 441.13429184 127.42798078 441.10673579 113.34231144 441.06530881 C104.6592176 441.04024278 95.97626869 441.02679954 87.29313815 441.0284923 C81.3289313 441.02852219 75.36487146 441.01379039 69.40072196 440.98775759 C65.96594473 440.97319156 62.53146892 440.96483911 59.09666634 440.97411919 C32.5691504 441.02151055 32.5691504 441.02151055 20.2565918 436.41992188 C19.13390223 436.00758867 19.13390223 436.00758867 17.98853207 435.58692551 C2.62856881 429.36738703 -8.17474269 417.67293856 -14.57543945 402.57226562 C-23.3643036 378.85115067 -27.19984317 352.75756135 -32.45629883 328.07202148 C-35.62507361 313.22316836 -38.94154641 298.40688426 -42.25775146 283.59039307 C-42.72367231 281.50812446 -43.18894373 279.42571179 -43.65405273 277.34326172 C-46.93490461 262.66157178 -50.29208835 247.99982464 -53.7434082 233.35742188 C-53.9091333 232.65353333 -54.0748584 231.94964478 -54.24560547 231.22442627 C-55.91646447 224.12858114 -57.59376368 217.03440615 -59.29516602 209.94581604 C-59.95823112 207.17879892 -60.61614904 204.41057258 -61.27319336 201.64212036 C-61.73105056 199.72175293 -62.196115 197.80310836 -62.66137695 195.88452148 C-63.07323242 194.14634155 -63.07323242 194.14634155 -63.4934082 192.37304688 C-63.73575195 191.3640332 -63.9780957 190.35501953 -64.2277832 189.31542969 C-65.02490683 184.83915782 -65.43298388 180.76881605 -63.1184082 176.73242188 C-62.81676758 176.17167969 -62.51512695 175.6109375 -62.2043457 175.03320312 C-59.39484677 171.93073506 -56.26835359 170.55898103 -52.0977478 170.17866516 C-49.01618198 170.12503817 -45.94951048 170.15842989 -42.8684082 170.23242188 C-41.79848633 170.24595703 -40.72856445 170.25949219 -39.6262207 170.2734375 C-36.99809309 170.30863564 -34.37101626 170.35787494 -31.7434082 170.41992188 C-31.74525179 169.66969757 -31.74709538 168.91947327 -31.74899483 168.14651489 C-31.79319965 149.8760735 -31.82627733 131.6056428 -31.84703255 113.3351593 C-31.85733687 104.4996244 -31.87138108 95.66412524 -31.89428711 86.82861328 C-31.91424681 79.12590002 -31.92713077 71.42321265 -31.93158519 63.72047424 C-31.9341882 59.64347121 -31.94028883 55.56654224 -31.95486832 51.48956299 C-31.96849301 47.64827971 -31.972621 43.80710066 -31.96962357 39.96579552 C-31.97017155 38.55977499 -31.97411981 37.15375079 -31.98181915 35.74775124 C-32.03722405 25.10355558 -32.08429983 15.87122704 -24.1730957 7.82226562 C-16.6103112 0.92080084 -9.96833996 -0.02678733 0 0 Z " fill="#0E0F0F" transform="translate(322.743408203125,146.580078125)"/>
<path d="M0 0 C0.9883558 -0.00445784 1.97671161 -0.00891569 2.99501759 -0.01350862 C4.07340631 -0.01332426 5.15179504 -0.01313989 6.26286221 -0.01294994 C7.99003818 -0.01846498 7.99003818 -0.01846498 9.75210661 -0.02409142 C12.94429435 -0.03319871 16.13645187 -0.03782366 19.32865036 -0.04048073 C22.7732767 -0.04439218 26.21788827 -0.05396993 29.66250515 -0.0626936 C37.97942011 -0.08243441 46.29633624 -0.09252124 54.61326876 -0.10142139 C58.53324551 -0.10580824 62.45322091 -0.11117402 66.3731966 -0.11641026 C79.4099048 -0.13342024 92.44661218 -0.14791338 105.48332977 -0.155159 C108.8646288 -0.15706878 112.24592783 -0.15898913 115.62722683 -0.16094494 C116.46759558 -0.16142868 117.30796432 -0.16191242 118.17379879 -0.16241082 C131.78068773 -0.17070734 145.38748865 -0.19603888 158.99433918 -0.22852562 C172.97507059 -0.26163193 186.95575733 -0.27961099 200.93652815 -0.28280324 C208.78180237 -0.28496504 216.62694824 -0.29366525 224.47218418 -0.31926441 C231.1548872 -0.3410203 237.83743068 -0.3489979 244.52016509 -0.33929763 C247.92628443 -0.33476698 251.33207492 -0.33656622 254.73814869 -0.35605907 C258.44083466 -0.37379818 262.14269451 -0.36666062 265.84538174 -0.35352612 C266.90815541 -0.36449536 267.97092908 -0.37546461 269.06590801 -0.38676625 C281.97758588 -0.27670007 291.44006869 3.97263237 300.70950222 12.75531483 C309.76952071 22.34421764 311.49431527 34.122497 311.27590847 46.76312733 C310.8151782 57.34617051 306.31362332 66.97548773 298.74075222 74.32562733 C290.65577408 81.20672941 281.72908283 85.24580664 271.02557087 85.26844215 C269.5525623 85.27512892 269.5525623 85.27512892 268.04979599 85.28195077 C266.97850704 85.28176641 265.90721809 85.28158205 264.80346584 85.2813921 C263.65947673 85.28506879 262.51548762 85.28874547 261.33683217 85.29253358 C257.4947424 85.30356671 253.65267968 85.30741364 249.81057644 85.31122303 C247.05924658 85.31695692 244.30792075 85.32412207 241.55659389 85.33113575 C233.29456058 85.35087542 225.03252608 85.36096288 216.77047509 85.36986354 C212.8767687 85.37425025 208.98306366 85.37961604 205.08935833 85.38485241 C192.14100521 85.40186166 179.19265293 85.41635523 166.24429035 85.42360115 C162.88601461 85.42551094 159.52773887 85.42743129 156.16946316 85.42938709 C155.33481333 85.42987083 154.5001635 85.43035457 153.64022125 85.43085297 C140.12318786 85.43915111 126.60624302 85.46448573 113.08924828 85.49696777 C99.20231271 85.53006597 85.31542211 85.54805238 71.42844689 85.55124539 C63.63518315 85.55340786 55.84204858 85.56211793 48.04882336 85.58770657 C41.41110676 85.60945128 34.77355073 85.61744549 28.13580255 85.60773978 C24.75200989 85.60320592 21.36881589 85.60722502 17.98502445 85.62450123 C14.30826057 85.64221986 10.63233033 85.63511284 6.95556545 85.62196827 C5.36870853 85.63842214 5.36870853 85.63842214 3.74979389 85.65520841 C-7.99428212 85.5541966 -18.44293457 81.3940178 -26.97409153 73.25140858 C-36.79672808 62.6154327 -38.60430533 51.06518194 -38.30612278 37.02875233 C-37.81446554 26.32809663 -33.11993599 18.01991003 -26.00143528 10.13422108 C-18.50663508 3.81128826 -9.85753238 0.02071095 0 0 Z " fill="#0D0E0E" transform="translate(377.0014352798462,828.8657789230347)"/>
<path d="M0 0 C0.88879852 -0.00426498 1.77759705 -0.00852997 2.69332886 -0.01292419 C3.66586609 -0.01247101 4.63840332 -0.01201782 5.64041138 -0.0115509 C7.17983902 -0.01658882 7.17983902 -0.01658882 8.75036621 -0.02172852 C12.15138959 -0.03124666 15.55236378 -0.03318208 18.95339966 -0.03425598 C21.31368022 -0.037468 23.67396058 -0.04083203 26.03424072 -0.04434204 C30.98565126 -0.0503355 35.93704434 -0.05218172 40.88845825 -0.05158997 C47.23616507 -0.05148834 53.58376005 -0.06514003 59.93144035 -0.08236217 C64.80758174 -0.09347549 69.68369603 -0.09550938 74.55984879 -0.09498024 C76.90023306 -0.09616138 79.24061801 -0.10059066 81.58098984 -0.10831261 C84.85348108 -0.11809869 88.1257288 -0.11523977 91.39822388 -0.10920715 C92.36671265 -0.11482666 93.33520142 -0.12044617 94.33303833 -0.12623596 C102.96973751 -0.08573396 102.96973751 -0.08573396 106.64871216 2.13371277 C110.00504195 5.57826004 110.02719578 8.32882727 110.03639221 13.03494263 C110.04177775 13.7290364 110.04716329 14.42313017 110.05271202 15.13825709 C110.06701769 17.46366429 110.05988174 19.78850433 110.05276489 22.11393738 C110.05846712 23.78127501 110.06543081 25.44860873 110.07356262 27.11593628 C110.09152565 31.64487248 110.09031974 36.17361526 110.08462024 40.7025764 C110.08153287 44.48250432 110.08761581 48.26239485 110.09365898 52.04231745 C110.10771298 60.95912596 110.10613571 69.87583868 110.09475708 78.79264832 C110.08327511 87.99380932 110.09735084 97.19467889 110.12415355 106.39580148 C110.14630006 114.29400498 110.1529503 122.19211691 110.14707714 130.09034926 C110.14370383 134.80830936 110.14614743 139.52608263 110.16332817 144.24401665 C110.17877852 148.68052839 110.17486317 153.11660794 110.15602303 157.55310249 C110.1523318 159.18130027 110.15546115 160.80952993 110.16590881 162.43769836 C110.17908488 164.66079865 110.16760338 166.88246099 110.1499176 169.10549927 C110.14960368 170.9712506 110.14960368 170.9712506 110.14928341 172.87469387 C109.55657333 176.73359176 108.36286255 178.38123947 105.64871216 181.13371277 C103.28788883 182.31412443 101.86116943 182.26699438 99.2278595 182.28088379 C98.29836487 182.28803909 97.36887024 182.2951944 96.41120911 182.30256653 C95.38832291 182.30525543 94.36543671 182.30794434 93.31155396 182.31071472 C91.69919357 182.32057152 91.69919357 182.32057152 90.05426025 182.33062744 C86.48548316 182.35039123 82.91674819 182.36202939 79.34793091 182.37199402 C77.52312163 182.37810731 77.52312163 182.37810731 75.66144753 182.3843441 C69.22369175 182.40521712 62.78595737 182.41951401 56.34817505 182.42887878 C49.68980592 182.43894323 43.03181653 182.47435703 36.37355328 182.51405048 C31.26150377 182.54016132 26.14953442 182.54856568 21.03742409 182.55216026 C18.58258624 182.55703984 16.1277523 182.56869254 13.67297935 182.58719826 C10.23973324 182.61147317 6.80735911 182.61064566 3.37405396 182.60368347 C2.35724045 182.61649353 1.34042694 182.62930359 0.2928009 182.64250183 C-4.01164445 182.61063537 -6.62632372 182.55730564 -10.3966217 180.3543396 C-14.13219183 176.11049095 -14.60238113 173.06659157 -14.61198425 167.42230225 C-14.6158098 166.74862624 -14.61963535 166.07495023 -14.62357682 165.38085979 C-14.63389137 163.12465122 -14.62991769 160.86869786 -14.62594604 158.61247253 C-14.63029337 156.99439763 -14.63547659 155.37632478 -14.64143372 153.758255 C-14.65483256 149.36364503 -14.65540141 144.96912102 -14.65287042 140.5744946 C-14.65180133 136.90641363 -14.65668247 133.2383501 -14.66147584 129.57027286 C-14.67257404 120.91717123 -14.67300664 112.264113 -14.66696167 103.61100769 C-14.66092029 94.68255304 -14.67323634 85.75425591 -14.69453174 76.82582814 C-14.71214105 69.16117903 -14.71815017 61.4965801 -14.714894 53.8319115 C-14.71307996 49.2537072 -14.7157293 44.67561527 -14.72960854 40.09742928 C-14.74217142 35.79230825 -14.74025745 31.48743301 -14.72719765 27.18231583 C-14.72482897 25.60249308 -14.72757699 24.02265312 -14.73582077 22.44285011 C-14.74626567 20.28564972 -14.73820664 18.12927748 -14.72550964 15.97210693 C-14.72567739 14.76514443 -14.72584513 13.55818193 -14.72601795 12.31464481 C-14.20768284 7.91470812 -12.66221688 5.28077567 -9.35128784 2.38371277 C-6.20128686 0.41496215 -3.62801899 0.00787135 0 0 Z " fill="#D11715" transform="translate(323.3512878417969,164.8662872314453)"/>
<path d="M0 0 C1.09944366 -0.00596161 1.09944366 -0.00596161 2.2210983 -0.01204365 C4.67789995 -0.02167068 7.13412634 -0.00984651 9.59091187 0.00190735 C11.3517834 -0.00052044 13.11265355 -0.00423964 14.8735199 -0.00915527 C19.65639612 -0.01856823 24.43906786 -0.00913617 29.22192812 0.00417686 C34.22182533 0.01548132 39.22171233 0.01138472 44.22161865 0.00942993 C52.61639758 0.0085468 61.01109578 0.01963269 69.40585327 0.03804016 C79.12163901 0.05922184 88.83730657 0.06271485 98.55311072 0.0564782 C107.88953252 0.0507912 117.22591256 0.05642147 126.56232834 0.06765175 C130.54077295 0.07230514 134.5191921 0.07316841 138.4976387 0.0710659 C143.17781122 0.06918751 147.8578628 0.07725215 152.53800774 0.0931263 C154.25937716 0.09738218 155.98075882 0.098211 157.70213127 0.0954361 C160.04414963 0.09223243 162.38580245 0.10124965 164.7277832 0.11352539 C166.69723624 0.1166047 166.69723624 0.1166047 168.70647621 0.11974621 C171.73690796 0.3742218 171.73690796 0.3742218 173.73690796 2.3742218 C173.98300362 4.36946297 173.98300362 4.36946297 173.97741699 6.86668396 C173.98154948 8.28143352 173.98154948 8.28143352 173.98576546 9.72476387 C173.97497113 11.28785443 173.97497113 11.28785443 173.96395874 12.88252258 C173.96419981 13.99292845 173.96444088 15.10333431 173.96468925 16.24738884 C173.96319211 19.85485114 173.94794087 23.4621088 173.93222046 27.0695343 C173.92928127 29.29145712 173.92724007 31.51338131 173.92611694 33.73530579 C173.91561519 41.98996553 173.88769297 50.24459565 173.86190796 58.4992218 C173.82065796 76.9379718 173.77940796 95.3767218 173.73690796 114.3742218 C112.68690796 114.3742218 51.63690796 114.3742218 -11.26309204 114.3742218 C-11.34559204 96.1210968 -11.42809204 77.8679718 -11.51309204 59.0617218 C-11.54950806 53.29405334 -11.58592407 47.52638489 -11.6234436 41.5839386 C-11.64151001 34.55158997 -11.64151001 34.55158997 -11.64486694 31.26150513 C-11.65101728 28.95910555 -11.66510205 26.65671901 -11.68539429 24.35440063 C-11.71456857 20.87078906 -11.71871969 17.38796607 -11.7171936 13.9042511 C-11.73158604 12.87515719 -11.74597847 11.84606329 -11.76080704 10.78578472 C-11.75529705 9.84963738 -11.74978706 8.91349005 -11.74411011 7.94897461 C-11.74779728 7.13318782 -11.75148445 6.31740103 -11.75528336 5.47689342 C-11.26309204 3.3742218 -11.26309204 3.3742218 -9.68697166 1.61168861 C-6.34924522 -0.09232575 -3.74470196 -0.00047814 0 0 Z " fill="#D21715" transform="translate(499.2630920410156,200.6257781982422)"/>
<path d="M0 0 C56.76 0 113.52 0 172 0 C172 39.93 172 79.86 172 121 C114.91 121 57.82 121 -1 121 C-0.67 81.07 -0.34 41.14 0 0 Z " fill="#CF1614" transform="translate(390,406)"/>
<path d="M0 0 C2.64 0 5.28 0 8 0 C7.75113037 1.10867432 7.50226074 2.21734863 7.24584961 3.35961914 C5.55502442 10.91639524 3.88426585 18.4752632 2.31640625 26.05859375 C-2.59509792 49.68205224 -8.48156324 73.01641735 -14.52178955 96.37353516 C-17.3864219 107.46340536 -20.16901383 118.57330132 -22.9375 129.6875 C-23.39931373 131.53988103 -23.8611461 133.39225741 -24.32299805 135.24462891 C-24.97487363 137.85970478 -25.62658866 140.47482018 -26.27781677 143.09005737 C-27.41332614 147.64983675 -28.55287892 152.2085529 -29.69921875 156.765625 C-31.94520492 165.69815195 -34.1589108 174.63741133 -36.32421875 183.58984375 C-36.52893799 184.43536301 -36.73365723 185.28088226 -36.94458008 186.15202332 C-37.97242457 190.39799638 -38.9975698 194.64458879 -40.01806641 198.89233398 C-40.3934677 200.44647284 -40.7689521 202.00059162 -41.14453125 203.5546875 C-41.31715988 204.27740341 -41.48978851 205.00011932 -41.66764832 205.74473572 C-42.88658555 210.7731711 -42.88658555 210.7731711 -44 213 C-85.58 213 -127.16 213 -170 213 C-170 207.39 -170 201.78 -170 196 C-168.82493896 195.98541748 -167.64987793 195.97083496 -166.43920898 195.95581055 C-162.05739728 195.89760489 -157.67608752 195.82037392 -153.29467773 195.73754883 C-151.40250833 195.70440393 -149.51024254 195.67633983 -147.61791992 195.65356445 C-144.88939546 195.61982579 -142.161746 195.56750135 -139.43359375 195.51171875 C-138.17536049 195.50213387 -138.17536049 195.50213387 -136.89170837 195.49235535 C-130.17246461 195.32616573 -125.39694141 194.07734923 -120.1875 189.5625 C-117.05358335 184.95941788 -117.05358335 184.95941788 -116 174 C-100.655 173.505 -100.655 173.505 -85 173 C-83.09805318 168.24513295 -82.37901805 165.96785561 -83 161 C-84.64872195 158.35662654 -85.32449598 157.42174613 -88 156 C-92.59785042 155.23006704 -97.15832861 155.20916971 -101.8125 155.1875 C-103.07771484 155.16236328 -104.34292969 155.13722656 -105.64648438 155.11132812 C-108.76398889 155.05250729 -111.88202828 155.02337947 -115 155 C-115 147.08 -115 139.16 -115 131 C-112.94136719 130.90203125 -110.88273438 130.8040625 -108.76171875 130.703125 C-106.76595516 130.59186292 -104.77019653 130.48046603 -102.7746582 130.36523438 C-101.38895146 130.28872793 -100.00285251 130.21900806 -98.61645508 130.15625 C-96.62230707 130.06479499 -94.62943224 129.94679776 -92.63671875 129.828125 C-91.43748779 129.7652832 -90.23825684 129.70244141 -89.00268555 129.63769531 C-85.9439299 129.2637048 -85.9439299 129.2637048 -84.11645508 127.19433594 C-82.44151485 123.9023257 -82.00094997 120.52953858 -83 117 C-85.5831705 113.85351481 -87.09845882 112.18945481 -91.13793945 111.34057617 C-92.28480225 111.32486572 -93.43166504 111.30915527 -94.61328125 111.29296875 C-95.86044922 111.26396484 -97.10761719 111.23496094 -98.39257812 111.20507812 C-99.68615234 111.19927734 -100.97972656 111.19347656 -102.3125 111.1875 C-103.62541016 111.16236328 -104.93832031 111.13722656 -106.29101562 111.11132812 C-109.52702167 111.05249165 -112.76354354 111.02337559 -116 111 C-116 102.75 -116 94.5 -116 86 C-114.03675781 85.98582031 -112.07351563 85.97164063 -110.05078125 85.95703125 C-107.47133061 85.91013215 -104.89190424 85.86188476 -102.3125 85.8125 C-101.01892578 85.80669922 -99.72535156 85.80089844 -98.39257812 85.79492188 C-97.14541016 85.76591797 -95.89824219 85.73691406 -94.61328125 85.70703125 C-92.89298706 85.68346558 -92.89298706 85.68346558 -91.13793945 85.65942383 C-87.09845882 84.81054519 -85.5831705 83.14648519 -83 80 C-81.95921451 76.32301443 -82.49453159 72.93872704 -84.3125 69.5625 C-87.47560362 66.63370035 -90.86872241 66.82399484 -94.98046875 66.68359375 C-96.14384766 66.64169922 -97.30722656 66.59980469 -98.50585938 66.55664062 C-99.72080078 66.51732422 -100.93574219 66.47800781 -102.1875 66.4375 C-103.41404297 66.39431641 -104.64058594 66.35113281 -105.90429688 66.30664062 C-108.93608381 66.2004691 -111.96795315 66.09842048 -115 66 C-115.05607422 64.60587891 -115.05607422 64.60587891 -115.11328125 63.18359375 C-115.70389252 51.79736781 -115.70389252 51.79736781 -121.3125 42.1875 C-126.79464861 37.72528601 -132.57243032 37.67850647 -139.3359375 37.5859375 C-140.65496567 37.55688828 -140.65496567 37.55688828 -142.00064087 37.5272522 C-144.79199718 37.46777185 -147.58339543 37.4211979 -150.375 37.375 C-152.27475694 37.33679115 -154.1744971 37.29773774 -156.07421875 37.2578125 C-160.71605538 37.16051636 -165.35772678 37.08069825 -170 37 C-170 29.08 -170 21.16 -170 13 C-168.06338501 12.99635437 -166.12677002 12.99270874 -164.13146973 12.98895264 C-145.885839 12.95202073 -127.64037575 12.89450438 -109.39487457 12.81609726 C-100.01454894 12.77631426 -90.63430711 12.74391801 -81.25390625 12.72900391 C-73.07645771 12.71598356 -64.89919362 12.68900912 -56.72184896 12.64538693 C-52.39331306 12.6227807 -48.06500459 12.60708881 -43.73640442 12.60811615 C-39.65855427 12.60886326 -35.58120671 12.59089227 -31.50348663 12.55883217 C-30.01041711 12.55034373 -28.51729114 12.54857609 -27.02420807 12.55419731 C-14.73203625 12.69116972 -14.73203625 12.69116972 -4.45816803 6.48211288 C-2.69351203 4.45011005 -1.2049986 2.4099972 0 0 Z " fill="#D11715" transform="translate(697,350)"/>
<path d="M0 0 C1.65 0 3.3 0 5 0 C5.14695312 0.54527344 5.29390625 1.09054687 5.4453125 1.65234375 C8.07821447 10.50434174 11.93027673 17.41750943 20.0703125 22.125 C23.60451461 23.72755318 26.83527084 24.12765486 30.69500732 24.15821838 C32.10421196 24.17290161 32.10421196 24.17290161 33.54188538 24.18788147 C34.56543625 24.19363693 35.58898712 24.1993924 36.64355469 24.20532227 C38.26840034 24.22017166 38.26840034 24.22017166 39.92607117 24.23532104 C43.50798351 24.26691875 47.08990912 24.29168677 50.671875 24.31640625 C53.15480902 24.33697726 55.63773954 24.35797377 58.1206665 24.37937927 C63.98893543 24.42894155 69.8572252 24.47421084 75.72554421 24.51740164 C83.06315993 24.57166941 90.40071664 24.6326002 97.73828125 24.69335938 C110.82548317 24.8009223 123.91272397 24.90186752 137 25 C137 32.59 137 40.18 137 48 C132.91625 48.03867187 132.91625 48.03867187 128.75 48.078125 C126.09218323 48.11661704 123.43455579 48.16175405 120.77685547 48.20751953 C118.94003447 48.23561931 117.10309503 48.25688818 115.26611328 48.27099609 C112.61429686 48.29257897 109.96388815 48.33930499 107.3125 48.390625 C106.50071289 48.39185364 105.68892578 48.39308228 104.85253906 48.39434814 C99.16129761 48.53818657 94.76113979 49.80979333 90 53 C85.5939872 57.78487378 85.35882311 62.17208271 85.25 68.375 C85.20552734 69.62216797 85.20552734 69.62216797 85.16015625 70.89453125 C85.08999601 72.92917827 85.04267105 74.96459091 85 77 C84.19780029 77.02505615 83.39560059 77.0501123 82.5690918 77.07592773 C78.94172926 77.19182043 75.31463083 77.31457751 71.6875 77.4375 C70.42486328 77.47681641 69.16222656 77.51613281 67.86132812 77.55664062 C66.65283203 77.59853516 65.44433594 77.64042969 64.19921875 77.68359375 C63.08377686 77.72025146 61.96833496 77.75690918 60.8190918 77.79467773 C57.92126429 77.88931209 57.92126429 77.88931209 55 79 C54.04392561 81.86822318 53.77307293 83.94244746 53.6875 86.9375 C53.65011719 87.79214844 53.61273438 88.64679688 53.57421875 89.52734375 C54.1537546 92.89290517 55.34610954 93.88811089 58 96 C60.98687874 96.63914976 60.98687874 96.63914976 64.296875 96.609375 C65.50214844 96.64160156 66.70742188 96.67382812 67.94921875 96.70703125 C69.20347656 96.72121094 70.45773437 96.73539062 71.75 96.75 C73.01972656 96.77964844 74.28945313 96.80929687 75.59765625 96.83984375 C78.73142836 96.91053034 81.8657185 96.95753006 85 97 C85 105.25 85 113.5 85 122 C83.09734375 122.02578125 81.1946875 122.0515625 79.234375 122.078125 C76.73956017 122.13439902 74.24476939 122.1917465 71.75 122.25 C69.86861328 122.27126953 69.86861328 122.27126953 67.94921875 122.29296875 C66.74394531 122.32519531 65.53867187 122.35742188 64.296875 122.390625 C63.18666992 122.41157227 62.07646484 122.43251953 60.93261719 122.45410156 C57.36152016 123.11885123 56.17852911 124.13851421 54 127 C53.02227965 131.13650918 52.39340755 134.98351887 54 139 C57.74414886 140.91780674 61.00623274 141.29082461 65.17578125 141.4140625 C66.91118164 141.47207031 66.91118164 141.47207031 68.68164062 141.53125 C69.87982422 141.5621875 71.07800781 141.593125 72.3125 141.625 C74.1387793 141.68300781 74.1387793 141.68300781 76.00195312 141.7421875 C79.00105742 141.83627705 82.00050771 141.91921991 85 142 C85 149.92 85 157.84 85 166 C82.14601563 166.03867187 82.14601563 166.03867187 79.234375 166.078125 C76.73956017 166.13439902 74.24476939 166.1917465 71.75 166.25 C70.49574219 166.26417969 69.24148438 166.27835938 67.94921875 166.29296875 C66.74394531 166.32519531 65.53867187 166.35742188 64.296875 166.390625 C63.18666992 166.41157227 62.07646484 166.43251953 60.93261719 166.45410156 C57.38728618 167.11405495 56.19544761 168.19407105 54 171 C53.33862266 173.17123577 53.33862266 173.17123577 53.4375 175.4375 C53.41558594 176.17871094 53.39367187 176.91992188 53.37109375 177.68359375 C54.08584171 180.31617473 55.04999695 182.13343197 57.07202148 183.99389648 C61.6412437 186.37831649 67.28186928 185.78814514 72.3125 185.8125 C73.53001953 185.83763672 74.74753906 185.86277344 76.00195312 185.88867188 C79.00162687 185.94748901 81.99984298 185.98381039 85 186 C85.1861084 187.13018555 85.1861084 187.13018555 85.37597656 188.28320312 C85.54581055 189.27255859 85.71564453 190.26191406 85.890625 191.28125 C86.05594727 192.26158203 86.22126953 193.24191406 86.39160156 194.25195312 C87.20343066 197.91886656 88.49154879 200.21283199 91 203 C96.07161767 206.20591298 100.27292479 206.45348937 106.08203125 206.4765625 C106.93681564 206.49214203 107.79160004 206.50772156 108.67228699 206.52377319 C111.38568298 206.5710776 114.09882345 206.59900186 116.8125 206.625 C119.5438516 206.66147241 122.27505764 206.70200974 125.00627136 206.74765015 C126.7022395 206.77491745 128.39831509 206.79625102 130.09443665 206.81118774 C135.88929413 206.88929413 135.88929413 206.88929413 137 208 C137.07319621 210.69654854 137.09242537 213.36691458 137.0625 216.0625 C137.05798828 216.82111328 137.05347656 217.57972656 137.04882812 218.36132812 C137.0370068 220.24091871 137.01907078 222.12046899 137 224 C128.84547279 224.09317588 120.69117249 224.16400367 112.53624249 224.20724869 C108.74849672 224.22801684 104.96111837 224.25613353 101.17358398 224.30175781 C97.51011927 224.34560532 93.84700523 224.36921783 90.18329811 224.37950897 C88.79399924 224.38683135 87.40471693 224.40112787 86.01556969 224.42292023 C73.58768452 224.60991541 63.33410233 222.60395056 54 214 C47.95436991 207.91787717 44.24143847 202.13438764 42.42529297 193.63549805 C42.15390503 192.38526855 41.88251709 191.13503906 41.60290527 189.84692383 C41.31585297 188.48521965 41.02895135 187.1234837 40.7421875 185.76171875 C40.43566395 184.33578094 40.12839697 182.91000276 39.82043457 181.484375 C39.16849595 178.45925912 38.52154484 175.43313765 37.87860107 172.40609741 C36.86845436 167.65081643 35.8465851 162.89810268 34.82275391 158.14575195 C33.47558277 151.88836579 32.1323223 145.63015781 30.79296875 139.37109375 C28.67431114 129.47205256 26.5400321 119.57651173 24.375 109.6875 C24.20766357 108.92216949 24.04032715 108.15683899 23.86791992 107.36831665 C19.20287469 86.07637868 14.18883689 64.86297271 9.24150085 43.63534546 C7.18667601 34.81359151 5.14182219 25.98968196 3.13531494 17.15679932 C2.70164347 15.24969698 2.26469509 13.34334072 1.82763672 11.43701172 C1.57900879 10.33760254 1.33038086 9.23819336 1.07421875 8.10546875 C0.86369873 7.17887451 0.65317871 6.25228027 0.4362793 5.29760742 C0 3 0 3 0 0 Z " fill="#D11715" transform="translate(286,339)"/>
<path d="M0 0 C11.02356975 10.3118117 17.82902761 23.67352866 18.35131836 38.86181641 C18.53053463 54.57003026 13.72279206 68.39588256 3 80 C-9.17027558 91.6980603 -23.45215633 96.38713683 -40 96.25 C-41.39992188 96.26160156 -41.39992188 96.26160156 -42.828125 96.2734375 C-57.84300898 96.23149648 -71.77720762 91.14594273 -83 81 C-93.17371783 69.81365707 -99.58465016 55.9238913 -99.18359375 40.66015625 C-98.0382678 24.06511427 -91.85466073 10.2439424 -79.75 -1.3125 C-57.57635087 -19.99514209 -21.6175448 -18.51102354 0 0 Z " fill="#C91816" transform="translate(654,716)"/>
<path d="M0 0 C8.58 0 17.16 0 26 0 C26 13.86 26 27.72 26 42 C39.86 42 53.72 42 68 42 C68 28.14 68 14.28 68 0 C76.91 0 85.82 0 95 0 C95 35.31 95 70.62 95 107 C86.42 107 77.84 107 69 107 C69 93.14 69 79.28 69 65 C54.81 65 40.62 65 26 65 C26 79.19 26 93.38 26 108 C17.42 108 8.84 108 0 108 C0 72.36 0 36.72 0 0 Z " fill="#C91715" transform="translate(448,703)"/>
<path d="M0 0 C8.848125 -0.0825 17.69625 -0.165 26.8125 -0.25 C30.96936401 -0.30462402 30.96936401 -0.30462402 35.21020508 -0.36035156 C37.43830595 -0.37204804 39.66641546 -0.38223759 41.89453125 -0.390625 C43.59144104 -0.4213208 43.59144104 -0.4213208 45.32263184 -0.45263672 C56.75107949 -0.45759 65.91534045 2.6573721 74.5625 10.25 C82.24461772 18.91700461 85.66935268 28.35895066 85.35546875 39.97265625 C84.0822062 50.81637576 78.70372538 59.14853816 70.5703125 66.16796875 C63.08005521 71.50676916 53.98919967 73.14427423 44.9453125 73.09765625 C43.94516113 73.09515869 42.94500977 73.09266113 41.91455078 73.09008789 C40.66399902 73.08098389 39.41344727 73.07187988 38.125 73.0625 C32.123125 73.0315625 32.123125 73.0315625 26 73 C26 83.89 26 94.78 26 106 C17.42 106 8.84 106 0 106 C0 71.02 0 36.04 0 0 Z " fill="#C91715" transform="translate(685,704)"/>
<path d="M0 0 C4.78148559 4.57028923 8.77795952 10.40098142 10 17 C10 19.64 10 22.28 10 25 C1.42 25 -7.16 25 -16 25 C-16.99 22.69 -17.98 20.38 -19 18 C-25.09171767 13.76867906 -31.87359605 14.25784196 -39 15 C-42.07161584 15.91333002 -42.77742299 16.52341419 -45 19 C-46.32548832 22.44336774 -46.32548832 22.44336774 -46 26 C-43.3592256 29.26184189 -40.90323388 30.70842195 -36.96484375 32.0390625 C-35.50860596 32.5345459 -35.50860596 32.5345459 -34.02294922 33.04003906 C-30.1842464 34.25904887 -26.33204289 35.4176028 -22.46264648 36.53515625 C4.27156734 44.27702809 4.27156734 44.27702809 11.01953125 55.73046875 C14.61060577 63.42094341 14.26692012 73.429852 11.5 81.3125 C6.73688523 91.3845031 -0.7156969 97.07910944 -11 101 C-17.17832847 102.88710451 -22.80673509 103.3522913 -29.25 103.3125 C-30.17514404 103.30831055 -31.10028809 103.30412109 -32.0534668 103.29980469 C-45.12934308 103.08441305 -56.40680342 99.91927798 -66.171875 91 C-72.33942718 84.25259249 -74 77.96403751 -74 69 C-65.42 69 -56.84 69 -48 69 C-47.01 70.98 -46.02 72.96 -45 75 C-39.17670372 80.38654906 -34.14065361 80.34063489 -26.46875 80.28515625 C-21.78751127 79.90032469 -19.61320884 78.95626178 -16 76 C-13.98211164 73.47763955 -14 72.24903049 -14 69 C-15.36429455 64.90711636 -17.31511491 64.14507765 -21 62 C-24.15783322 60.76519051 -24.15783322 60.76519051 -27.5078125 59.8515625 C-28.74273437 59.48546875 -29.97765625 59.119375 -31.25 58.7421875 C-32.54129223 58.36849536 -33.83296148 57.99610362 -35.125 57.625 C-62.79391306 49.67089768 -62.79391306 49.67089768 -70.0859375 37.1328125 C-73.27638559 30.07870249 -73.00197683 21.58047373 -70.875 14.25 C-67.25432599 4.98040405 -60.77773915 -0.83952419 -51.85546875 -5 C-35.73538942 -11.41104493 -14.40337982 -9.51434526 0 0 Z " fill="#C91816" transform="translate(420,710)"/>
<path d="M0 0 C24.42 0 48.84 0 74 0 C74 7.59 74 15.18 74 23 C58.16 23 42.32 23 26 23 C26 29.27 26 35.54 26 42 C40.19 42 54.38 42 69 42 C69 48.93 69 55.86 69 63 C54.81 63 40.62 63 26 63 C26 69.93 26 76.86 26 84 C42.17 84 58.34 84 75 84 C75 91.59 75 99.18 75 107 C50.25 107 25.5 107 0 107 C0 71.69 0 36.38 0 0 Z " fill="#C81614" transform="translate(258,704)"/>
<path d="M0 0 C0.763125 0.4125 1.52625 0.825 2.3125 1.25 C12.63419583 7.38722455 18.13325768 16.66371758 21.578125 27.8828125 C23.89382958 39.50421882 21.4427887 50.76053234 15.3125 60.75 C8.35030809 70.41289104 -0.5228184 76.22722524 -12 79 C-24.34763805 80.37382894 -35.4941909 79.53566805 -45.73828125 71.98046875 C-55.33890301 63.8590539 -61.05744003 54.44337946 -63 42 C-63.08315942 28.37848654 -59.48830097 17.17952875 -50.22265625 7.05859375 C-37.62602899 -4.86827419 -15.34681959 -9.02754093 0 0 Z " fill="#0F0F10" transform="translate(417,602)"/>
<path d="M0 0 C4.13198679 2.17072117 7.32412711 4.98742688 10.54296875 8.3359375 C11.30609375 9.1196875 12.06921875 9.9034375 12.85546875 10.7109375 C17.95139534 18.63793442 18.47955727 27.08581039 17.54296875 36.3359375 C15.4973489 44.7380032 10.86794197 52.39270091 3.60546875 57.2109375 C-4.94568328 61.97583835 -14.8444308 62.97359625 -24.375 60.61328125 C-33.86855563 57.065765 -38.94079515 51.21412834 -43.45703125 42.3359375 C-46.9661224 33.56320963 -46.30712558 24.61588865 -42.77734375 15.9765625 C-38.73770665 7.89728831 -33.70703719 2.96535708 -25.45703125 -0.6640625 C-24.6578125 -1.02886719 -23.85859375 -1.39367187 -23.03515625 -1.76953125 C-15.45806665 -4.39855173 -7.25941118 -2.95404611 0 0 Z " fill="#E9E3DF" transform="translate(627.45703125,727.6640625)"/>
<path d="M0 0 C8.476875 -0.0928125 8.476875 -0.0928125 17.125 -0.1875 C18.89762207 -0.21481201 20.67024414 -0.24212402 22.49658203 -0.27026367 C23.91698528 -0.27903354 25.33739612 -0.2866763 26.7578125 -0.29296875 C27.48282959 -0.30831665 28.20784668 -0.32366455 28.95483398 -0.33947754 C35.30450809 -0.34272048 39.13668745 1.37972821 43.875 5.5 C46.67407638 9.14425204 46.69097188 12.82778602 46.5078125 17.296875 C45.71199123 21.53309283 43.83788285 23.80738179 41 27 C41.94875 27.7425 42.8975 28.485 43.875 29.25 C47.2610376 31.89994247 48.77651025 34.27964865 49.3359375 38.5859375 C49.39850323 43.05313077 49.30594678 46.29887197 47.5 50.4375 C43.37675312 54.66382806 38.65859884 57.16031212 32.6953125 57.45410156 C31.17172839 57.45311987 29.64802946 57.43174421 28.125 57.390625 C27.04605469 57.38458252 27.04605469 57.38458252 25.9453125 57.37841797 C23.29660992 57.35772498 20.64827525 57.30188195 18 57.25 C12.06 57.1675 6.12 57.085 0 57 C0 38.19 0 19.38 0 0 Z " fill="#E9E4E0" transform="translate(594,843)"/>
<path d="M0 0 C13.86 0 27.72 0 42 0 C42 3.96 42 7.92 42 12 C32.76 12 23.52 12 14 12 C14 15.3 14 18.6 14 22 C22.25 22 30.5 22 39 22 C39 25.96 39 29.92 39 34 C30.75 34 22.5 34 14 34 C14 37.63 14 41.26 14 45 C23.57 45 33.14 45 43 45 C43 49.29 43 53.58 43 58 C28.81 58 14.62 58 0 58 C0 38.86 0 19.72 0 0 Z " fill="#E6E1DC" transform="translate(455,843)"/>
<path d="M0 0 C4.12256701 3.81337449 4.91315842 7.65636221 6 13 C3.75165504 13.13526139 1.50097486 13.23210804 -0.75 13.3125 C-2.00296875 13.37050781 -3.2559375 13.42851563 -4.546875 13.48828125 C-8 13 -8 13 -10.265625 10.54296875 C-10.83796875 9.70378906 -11.4103125 8.86460937 -12 8 C-14.64440639 7.1185312 -16.28060752 6.83825182 -19 6.8125 C-20.0209375 6.79123047 -20.0209375 6.79123047 -21.0625 6.76953125 C-23.32614132 6.89059589 -23.32614132 6.89059589 -26 9 C-26.25030977 11.58380177 -26.25030977 11.58380177 -26 14 C-21.20820043 16.17977481 -16.63920637 17.70048028 -11.5 18.9375 C1.48096962 22.27455514 1.48096962 22.27455514 5.4375 28.25 C8.07958193 33.579717 7.57204834 38.12495266 5.875 43.6875 C2.47736445 49.68998947 -1.89117988 52.58150334 -8.37890625 54.49609375 C-18.07935938 56.36100948 -27.53636587 55.56323965 -35.875 50.125 C-40.2368293 45.7631707 -41.40032325 42.11670287 -42 36 C-39.73078464 35.86510609 -37.4592933 35.76806005 -35.1875 35.6875 C-33.29064453 35.60048828 -33.29064453 35.60048828 -31.35546875 35.51171875 C-30.24816406 35.67285156 -29.14085937 35.83398438 -28 36 C-26.2265625 38.4375 -26.2265625 38.4375 -25 41 C-20.97328256 42.87913481 -17.41480695 43.46966031 -13 43 C-10.08919881 41.97122608 -10.08919881 41.97122608 -8 40 C-7.58219121 37.37305578 -7.58219121 37.37305578 -8 35 C-12.93667175 32.54413047 -17.66881282 30.75500517 -23.0625 29.5625 C-29.93878068 27.93321566 -34.68152873 25.49235662 -39.5 20.3125 C-41.80800738 15.21565037 -42.05960482 10.30421148 -40.33984375 4.94140625 C-37.31089667 -1.15582489 -32.33332056 -3.16949607 -26.3125 -5.3125 C-16.89251823 -7.31675144 -7.9335403 -5.30405251 0 0 Z " fill="#E8E3DF" transform="translate(563,847)"/>
<path d="M0 0 C5.27566639 4.60842359 8.81512216 9.03884271 10 16 C7.75165504 16.13526139 5.50097486 16.23210804 3.25 16.3125 C1.99703125 16.37050781 0.7440625 16.42851563 -0.546875 16.48828125 C-4 16 -4 16 -6.3203125 13.5625 C-7.15175781 12.2940625 -7.15175781 12.2940625 -8 11 C-12.50560492 8.21712637 -17.87521515 8.36659963 -23 9 C-27.40276672 10.87525249 -29.29723582 13.07282825 -31.375 17.25 C-33.38918421 22.42086786 -34.12085923 26.72133689 -32.26953125 32.13671875 C-30.28927548 36.5094468 -28.11409322 39.36276075 -24 42 C-19.07092769 43.6430241 -15.18901338 43.3765209 -10.25 41.8125 C-6.85058863 40.32451188 -6.85058863 40.32451188 -5.74609375 37.40625 C-5.16988281 36.6121875 -4.59367187 35.818125 -4 35 C-0.64453125 34.51171875 -0.64453125 34.51171875 3.1875 34.6875 C4.45980469 34.73261719 5.73210937 34.77773438 7.04296875 34.82421875 C8.50669922 34.91123047 8.50669922 34.91123047 10 35 C9.15559547 41.82317681 6.44751267 46.27900093 1.03515625 50.55078125 C-6.95390593 55.7490386 -14.5627944 56.91766345 -24 56 C-27.30007212 55.08193482 -30.06943859 53.75833685 -33 52 C-33.63679688 51.62617187 -34.27359375 51.25234375 -34.9296875 50.8671875 C-40.8372891 47.03865599 -44.89173332 41.72988185 -47 35 C-48.16249117 25.72921701 -48.60843874 15.77613943 -42.8359375 8.01171875 C-31.85331045 -4.02243642 -15.00791696 -9.86460622 0 0 Z " fill="#E8E4E0" transform="translate(421,846)"/>
<path d="M0 0 C1.42119141 0.63615234 1.42119141 0.63615234 2.87109375 1.28515625 C9.89862555 4.78430177 15.40663005 9.54009441 21 15 C18.17477391 19.67248931 15.32239956 22.65996398 11 26 C10.56171875 25.56429687 10.1234375 25.12859375 9.671875 24.6796875 C-1.39688051 14.28585611 -13.96914375 10.27161851 -28.890625 10.6875 C-38.86461528 11.24626696 -47.17320464 14.97320686 -55 21 C-55.74121094 21.55558594 -56.48242188 22.11117187 -57.24609375 22.68359375 C-58.11427734 23.33521484 -58.11427734 23.33521484 -59 24 C-62.98882376 22.46583702 -66.64783382 19.5752926 -69 16 C-68.98828125 14.078125 -68.98828125 14.078125 -68 12 C-50.94080899 -4.69493783 -21.75451388 -9.82165817 0 0 Z " fill="#0F0F0F" transform="translate(606,230)"/>
<path d="M0 0 C3.80215393 1.72825178 5.44673007 3.16522476 7 7 C7.26742554 9.11778259 7.26742554 9.11778259 7.29052734 11.41381836 C7.3096669 12.71052711 7.3096669 12.71052711 7.32919312 14.03343201 C7.33141876 14.95954788 7.33364441 15.88566376 7.3359375 16.83984375 C7.3425943 17.79895157 7.3492511 18.75805939 7.35610962 19.74623108 C7.36622551 21.77277714 7.37092697 23.79935645 7.37060547 25.82592773 C7.37497941 28.92292211 7.41131252 32.01849199 7.44921875 35.11523438 C7.45508699 37.08593263 7.45905634 39.05663765 7.4609375 41.02734375 C7.47530853 41.95143539 7.48967957 42.87552704 7.50448608 43.82762146 C7.4743725 48.07371026 7.37871616 50.38553291 5.10766602 54.0703125 C2.14891185 56.77921936 0.08065614 56.96996 -3.80859375 57.20703125 C-7.18197137 56.88833426 -8.79472563 55.48093367 -11 53 C-11.92134457 50.23596629 -12.15032924 48.4690298 -12.20874023 45.60791016 C-12.22803085 44.72334137 -12.24732147 43.83877258 -12.26719666 42.92739868 C-12.32502833 38.89239752 -12.37418501 34.85757052 -12.4050293 30.82226562 C-12.42664174 28.69417119 -12.46078266 26.56616641 -12.50756836 24.43847656 C-12.57446468 21.3674356 -12.60200796 18.29822857 -12.62109375 15.2265625 C-12.64892441 14.27746002 -12.67675507 13.32835754 -12.70542908 12.35049438 C-12.68543823 5.93158207 -12.68543823 5.93158207 -10.72976685 3.27362061 C-7.20841456 0.18909016 -4.60223603 -0.78335932 0 0 Z " fill="#100F0F" transform="translate(478,437)"/>
<path d="M0 0 C0.83402344 -0.03351563 1.66804688 -0.06703125 2.52734375 -0.1015625 C6.27621619 0.9728447 8.22330755 3.31225374 10.0625 6.625 C10.75532781 9.90777158 10.71760057 13.09638723 10.65625 16.44140625 C10.65629028 17.37548813 10.65633057 18.30957001 10.65637207 19.2719574 C10.65102803 21.23956052 10.6334932 23.2071639 10.60449219 25.17456055 C10.56258374 28.18149177 10.56343166 31.18618483 10.5703125 34.19335938 C10.55982089 36.10939052 10.54688294 38.02541016 10.53125 39.94140625 C10.53104858 40.83735001 10.53084717 41.73329376 10.53063965 42.65638733 C10.44019345 47.43764236 10.21988335 50.77914717 7.0625 54.625 C3.3251144 57.1165904 1.48918417 57.08293285 -2.9375 56.625 C-5.69079021 54.82937595 -7.46377461 53.57245078 -8.9375 50.625 C-9.04706812 49.16584115 -9.0965127 47.70192574 -9.11450195 46.23876953 C-9.12733719 45.33087677 -9.14017242 44.42298401 -9.15339661 43.48757935 C-9.16078354 42.50425629 -9.16817047 41.52093323 -9.17578125 40.5078125 C-9.183853 39.49911102 -9.19192474 38.49040955 -9.20024109 37.45114136 C-9.21408592 35.31428754 -9.22480629 33.17741156 -9.23266602 31.04052734 C-9.24989421 27.77008305 -9.29377897 24.50064547 -9.33789062 21.23046875 C-9.34801601 19.15625745 -9.35653259 17.08203754 -9.36328125 15.0078125 C-9.38078934 14.0285379 -9.39829742 13.04926331 -9.41633606 12.04031372 C-9.39464178 5.26116816 -9.39464178 5.26116816 -7.06103516 2.01367188 C-4.53459653 0.36152392 -3.00909468 0.02781906 0 0 Z " fill="#0D0E0F" transform="translate(427.9375,437.375)"/>
<path d="M0 0 C2.69990662 1.79993774 4.5418865 3.083773 6 6 C6.1145425 7.4536994 6.16936407 8.91234578 6.19287109 10.37036133 C6.21696548 11.72735893 6.21696548 11.72735893 6.24154663 13.11177063 C6.28598861 17.25102 6.32706103 21.39010887 6.35009766 25.52954102 C6.3666593 27.71291766 6.39395188 29.89624004 6.43212891 32.0793457 C6.48688444 35.2263605 6.50876989 38.3721043 6.5234375 41.51953125 C6.54610687 42.49364456 6.56877625 43.46775787 6.59213257 44.47138977 C6.57746225 49.17675304 6.54957423 51.28816574 3.59619141 55.11352539 C0.35767705 57.46673212 -1.19972564 57.74070761 -5.06640625 57.4921875 C-8.41987095 56.6385783 -9.98027505 54.6929666 -12 52 C-13.19994216 48.58138544 -13.10824204 45.29326079 -13.078125 41.6953125 C-13.06845703 40.45168945 -13.05878906 39.20806641 -13.04882812 37.92675781 C-13.03271484 36.63092773 -13.01660156 35.33509766 -13 34 C-12.98356445 32.12199707 -12.98356445 32.12199707 -12.96679688 30.20605469 C-12.92185487 26.42799568 -12.83974842 22.65223774 -12.75 18.875 C-12.73582031 17.58851563 -12.72164062 16.30203125 -12.70703125 14.9765625 C-12.67480469 13.74421875 -12.64257812 12.511875 -12.609375 11.2421875 C-12.58842773 10.1372998 -12.56748047 9.03241211 -12.54589844 7.89404297 C-11.8823972 4.37653686 -10.75634086 3.20881316 -8 1 C-5.14675563 -0.42662219 -3.16545451 -0.31033868 0 0 Z " fill="#0D0F0F" transform="translate(526,437)"/>
<path d="M0 0 C3.485625 -0.061875 6.97125 -0.12375 10.5625 -0.1875 C12.18973999 -0.22846802 12.18973999 -0.22846802 13.84985352 -0.27026367 C19.68144304 -0.32015217 23.92378334 0.02312294 29 3 C31.91997608 6.36638846 32.90208868 10.20272208 33.4375 14.5625 C32.7646089 19.84950149 31.41528168 23.62100759 27.5625 27.375 C23.70235621 29.82289606 20.53545291 30.12521618 16.015625 30.09765625 C15.17290039 30.09515869 14.33017578 30.09266113 13.46191406 30.09008789 C12.40198242 30.08098389 11.34205078 30.07187988 10.25 30.0625 C6.8675 30.041875 3.485 30.02125 0 30 C0 20.1 0 10.2 0 0 Z " fill="#EAE5E1" transform="translate(711,726)"/>
<path d="M0 0 C4.97976454 2.61251031 8.23815832 5.94884997 10.01171875 11.26953125 C10.53337932 16.2381344 10.58412385 20.12472104 8.32421875 24.64453125 C4.7447101 28.70775729 1.55569791 31.85057247 -4.00390625 32.5078125 C-9.93580629 32.70485114 -13.16321307 31.77007091 -17.98828125 28.26953125 C-22.26790697 23.65204035 -23.41848728 19.84830898 -23.328125 13.68359375 C-22.63805448 8.7817135 -20.08506964 5.11657809 -16.4140625 1.8828125 C-11.4008075 -1.44767159 -5.66448994 -2.08106016 0 0 Z " fill="#E9E5E1" transform="translate(402.98828125,623.73046875)"/>
<path d="M0 0 C4.48076681 2.6130827 7.69262304 5.26250341 9.83984375 10.09375 C10.60373819 15.42509659 10.54394482 19.65947005 8.15234375 24.53125 C1.60102979 31.79081412 1.60102979 31.79081412 -3.33203125 32.33203125 C-9.17862162 32.50034218 -12.59208488 32.11800335 -17.16015625 28.09375 C-21.7829656 22.84623668 -22.51346625 19.7462061 -22.44140625 12.85546875 C-21.91935299 7.72919581 -19.2845209 5.10842054 -15.59765625 1.78125 C-10.85534553 -1.50188819 -5.3365716 -2.23885102 0 0 Z " fill="#EAE5E1" transform="translate(609.16015625,623.90625)"/>
<path d="M0 0 C2.25 1.71875 2.25 1.71875 4.25 4.71875 C0.95 8.01875 -2.35 11.31875 -5.75 14.71875 C-7.544375 13.295625 -7.544375 13.295625 -9.375 11.84375 C-15.32469294 7.44118489 -20.49448987 6.16957663 -27.86328125 6.25 C-32.11615801 6.94058892 -35.08838797 8.93651541 -38.55859375 11.40625 C-40.75 12.71875 -40.75 12.71875 -44.75 12.71875 C-46.671875 10.96875 -46.671875 10.96875 -48.5 8.71875 C-49.11359375 7.97625 -49.7271875 7.23375 -50.359375 6.46875 C-51.04773438 5.6025 -51.04773438 5.6025 -51.75 4.71875 C-49.57650986 -0.49537402 -45.60368756 -2.69888568 -40.75 -5.28125 C-25.89916736 -11.16471683 -13.04939317 -8.45244785 0 0 Z " fill="#0E0F0F" transform="translate(605.75,259.28125)"/>
<path d="M0 0 C96.03 0.33 192.06 0.66 291 1 C289.515 3.475 289.515 3.475 288 6 C287.67 5.34 287.34 4.68 287 4 C286.41268223 3.99864347 285.82536446 3.99728694 285.22024918 3.99588931 C250.40668773 3.91522939 215.59316801 3.82427074 180.77966923 3.71994839 C176.59904403 3.7074296 172.41841858 3.69499682 168.23779297 3.68261719 C166.98936841 3.6789182 166.98936841 3.6789182 165.71572316 3.67514448 C152.2416642 3.63542688 138.76759686 3.60267512 125.29351354 3.57250018 C111.46661801 3.54137999 97.63975802 3.50276814 83.81290245 3.45720994 C75.28183864 3.42933677 66.75080082 3.40729864 58.21970373 3.39273749 C52.36865283 3.38219081 46.51765225 3.36436348 40.66663927 3.34083296 C37.29152165 3.32747386 33.91653664 3.31838364 30.54138374 3.31578636 C26.87880945 3.31246292 23.21647956 3.29698259 19.55395508 3.2784729 C18.49168324 3.28040763 17.42941139 3.28234237 16.33494949 3.28433573 C10.5438559 3.24056822 5.55388596 2.6648647 0 1 C0 0.67 0 0.34 0 0 Z " fill="#F8F6F3" transform="translate(353,586)"/>
<path d="M0 0 C8.25 0 16.5 0 25 0 C25 7.59 25 15.18 25 23 C16.75 23 8.5 23 0 23 C0 15.41 0 7.82 0 0 Z " fill="#D21714" transform="translate(441,364)"/>
<path d="M0 0 C7.59 0 15.18 0 23 0 C23 7.59 23 15.18 23 23 C15.41 23 7.82 23 0 23 C0 15.41 0 7.82 0 0 Z " fill="#D51715" transform="translate(485,364)"/>
<path d="M0 0 C7.92 0 15.84 0 24 0 C24 5.61 24 11.22 24 17 C16.08 17 8.16 17 0 17 C0 11.39 0 5.78 0 0 Z " fill="#D31714" transform="translate(441,546)"/>
<path d="M0 0 C1.23685547 0.00064453 2.47371094 0.00128906 3.74804688 0.00195312 C5.03646484 0.01806641 6.32488281 0.03417969 7.65234375 0.05078125 C8.94462891 0.04755859 10.23691406 0.04433594 11.56835938 0.04101562 C21.18925427 0.09622159 21.18925427 0.09622159 24.58984375 2.36328125 C25.52734375 5.23828125 25.52734375 5.23828125 25.58984375 8.36328125 C23.41261185 11.34231518 22.19561253 12.26423957 18.52124023 12.86499023 C16.75889038 12.86221069 16.75889038 12.86221069 14.9609375 12.859375 C13.03797852 12.8603418 13.03797852 12.8603418 11.07617188 12.86132812 C10.07952515 12.84573853 10.07952515 12.84573853 9.06274414 12.82983398 C7.0299345 12.80081823 4.99972558 12.80924191 2.96679688 12.82226562 C-6.85660639 12.75799575 -6.85660639 12.75799575 -9.28881836 11.02368164 C-11.06635225 8.39163112 -10.85911893 6.44188248 -10.41015625 3.36328125 C-7.1885092 0.06620618 -4.48393101 -0.0117973 0 0 Z " fill="#0C0F0F" transform="translate(364.41015625,170.63671875)"/>
<path d="M0 0 C9.57 0 19.14 0 29 0 C29 13.53 29 27.06 29 41 C41.87 41 54.74 41 68 41 C68 27.8 68 14.6 68 1 C68.33 1 68.66 1 69 1 C69.33 14.86 69.66 28.72 70 43 C56.14 43 42.28 43 28 43 C28 29.14 28 15.28 28 1 C19.42 1 10.84 1 2 1 C2.01047363 4.03864258 2.02094727 7.07728516 2.03173828 10.20800781 C2.06485124 20.23833955 2.08695899 30.26867368 2.10362434 40.29904556 C2.11406952 46.38152198 2.12824219 52.46394248 2.15087891 58.54638672 C2.17258099 64.41429953 2.1845631 70.2821585 2.18975449 76.15010834 C2.19345497 78.39084471 2.20068091 80.63157807 2.21146011 82.87229156 C2.22593989 86.00639761 2.2279794 89.14028004 2.22705078 92.27441406 C2.23783661 93.66947929 2.23783661 93.66947929 2.24884033 95.09272766 C2.246091 95.94805588 2.24334167 96.80338409 2.24050903 97.68463135 C2.24235262 98.42575291 2.24419621 99.16687447 2.24609566 99.93045425 C2 102 2 102 0 106 C0 71.02 0 36.04 0 0 Z " fill="#EDEFEC" transform="translate(446,702)"/>
<path d="M0 0 C4.14613048 1.79037453 6.20962547 3.85386952 8 8 C8.4898067 11.36742108 8.7490388 13.75992466 6.9453125 16.74609375 C4.60357788 19.63515688 2.78867813 21.78563975 -0.98828125 22.23828125 C-5.15410332 22.3713075 -7.37869331 22.38831668 -11 20.125 C-14.47902736 16.42853343 -14.38781166 13.40391772 -14.359375 8.484375 C-14 6 -14 6 -11.625 2.9375 C-7.49664944 -0.10961589 -5.16178257 -0.34995136 0 0 Z " fill="#0E0F0F" transform="translate(375,316)"/>
<path d="M0 0 C7.59 0 15.18 0 23 0 C23 5.61 23 11.22 23 17 C15.74 17 8.48 17 1 17 C-0.53190797 13.93618406 -0.10243613 10.73034134 -0.0625 7.375 C-0.041875 4.94125 -0.02125 2.5075 0 0 Z " fill="#D41714" transform="translate(484,546)"/>
<path d="M0 0 C3.02508145 1.73602105 5.41790069 3.83580137 7 7 C7.37593152 11.98109259 7.1765161 15.05673864 4 19 C0.8054567 21.73817998 -0.73679083 22 -5 22 C-9.2366493 21.28721779 -11.30464847 19.34877008 -14 16 C-15.57455739 12.85088521 -15.34799118 10.47991184 -15 7 C-11.36615891 0.89840116 -7.02513109 -1.19909473 0 0 Z " fill="#100F0F" transform="translate(585,276)"/>
<path d="M0 0 C13.86 0 27.72 0 42 0 C42 3.96 42 7.92 42 12 C32.76 12 23.52 12 14 12 C14 15.3 14 18.6 14 22 C22.25 22 30.5 22 39 22 C39 25.96 39 29.92 39 34 C30.75 34 22.5 34 14 34 C14 37.63 14 41.26 14 45 C23.24 45 32.48 45 42 45 C41.505 45.99 41.505 45.99 41 47 C27.14 46.505 27.14 46.505 13 46 C13 41.71 13 37.42 13 33 C20.92 33 28.84 33 37 33 C37 30.03 37 27.06 37 24 C35.9627478 24.00785522 35.9627478 24.00785522 34.90454102 24.01586914 C31.79053648 24.036575 28.67654639 24.04963963 25.5625 24.0625 C24.47388672 24.07087891 23.38527344 24.07925781 22.26367188 24.08789062 C21.22919922 24.09111328 20.19472656 24.09433594 19.12890625 24.09765625 C18.17056885 24.10289307 17.21223145 24.10812988 16.22485352 24.11352539 C14 24 14 24 13 23 C13 19.04 13 15.08 13 11 C22.24 11 31.48 11 41 11 C41 7.7 41 4.4 41 1 C27.8 1 14.6 1 1 1 C1 17.83 1 34.66 1 52 C0.67 52 0.34 52 0 52 C0 34.84 0 17.68 0 0 Z " fill="#FCFCFB" transform="translate(455,843)"/>
<path d="M0 0 C2.75059381 -0.08107646 5.49879021 -0.14052813 8.25 -0.1875 C9.02730469 -0.21263672 9.80460938 -0.23777344 10.60546875 -0.26367188 C14.09548657 -0.30841569 16.38956437 -0.31939202 19.5234375 1.3203125 C21 3 21 3 21.375 6.0625 C21 9 21 9 19 11 C17.02880859 11.22705078 17.02880859 11.22705078 14.6484375 11.1953125 C13.79765625 11.18886719 12.946875 11.18242188 12.0703125 11.17578125 C10.73613281 11.15064453 10.73613281 11.15064453 9.375 11.125 C8.02921875 11.11146484 8.02921875 11.11146484 6.65625 11.09765625 C4.43738678 11.07405132 2.2186603 11.03817962 0 11 C0 7.37 0 3.74 0 0 Z " fill="#101111" transform="translate(608,877)"/>
<path d="M0 0 C13.86 0 27.72 0 42 0 C42 1.32 42 2.64 42 4 C27.9907504 4.67067454 14.02603124 5.15938672 0 5 C0 3.35 0 1.7 0 0 Z " fill="#DC1715" transform="translate(560,336)"/>
<path d="M0 0 C2.4377963 -0.05397335 4.87439685 -0.09365616 7.3125 -0.125 C8.00279297 -0.14175781 8.69308594 -0.15851562 9.40429688 -0.17578125 C13.17135396 -0.21217794 14.78431704 -0.14378864 18 2 C18.3125 5 18.3125 5 18 8 C16 10 16 10 12.3046875 10.1953125 C10.82799892 10.182009 9.35137642 10.15814835 7.875 10.125 C7.12089844 10.11597656 6.36679687 10.10695313 5.58984375 10.09765625 C3.72642746 10.0740687 1.86317407 10.03819719 0 10 C0 6.7 0 3.4 0 0 Z " fill="#111212" transform="translate(608,855)"/>
<path d="M0 0 C8.25 0 16.5 0 25 0 C25 3.96 25 7.92 25 12 C16.75 12 8.5 12 0 12 C0 15.63 0 19.26 0 23 C9.24 23 18.48 23 28 23 C27.67 23.66 27.34 24.32 27 25 C13.14 24.505 13.14 24.505 -1 24 C-1 19.71 -1 15.42 -1 11 C6.92 11 14.84 11 23 11 C23 8.03 23 5.06 23 2 C15.41 2 7.82 2 0 2 C0 1.34 0 0.68 0 0 Z " fill="#F1EFED" transform="translate(469,865)"/>
<path d="M0 0 C8.91 0 17.82 0 27 0 C26.67 6.27 26.34 12.54 26 19 C25.67 19 25.34 19 25 19 C25 13.39 25 7.78 25 2 C23.4325 2.165 21.865 2.33 20.25 2.5 C14.15607127 3.06263841 8.11492685 3.09604597 2 3 C2 5.31 2 7.62 2 10 C2.66 10.33 3.32 10.66 4 11 C3.34 11 2.68 11 2 11 C2 19.91 2 28.82 2 38 C1.67 38 1.34 38 1 38 C0.67 25.46 0.34 12.92 0 0 Z " fill="#CB2824" transform="translate(516,703)"/>
<path d="M0 0 C0.33 0 0.66 0 1 0 C1 3.63 1 7.26 1 11 C-13.19 11 -27.38 11 -42 11 C-42 9.02 -42 7.04 -42 5 C-41.67 6.32 -41.34 7.64 -41 9 C-27.8 9 -14.6 9 -1 9 C-1 6.36 -1 3.72 -1 1 C-0.67 0.67 -0.34 0.34 0 0 Z " fill="#D0CECD" transform="translate(497,890)"/>
<path d="M0 0 C22.44 0 44.88 0 68 0 C69.24546405 2.49092811 68.7767578 3.41080733 68 6 C68.99 6.33 69.98 6.66 71 7 C71.495 10.465 71.495 10.465 72 14 C70 11 70 11 69 8 C66.50240018 6.30117552 66.50240018 6.30117552 64 5 C64.33 4.01 64.66 3.02 65 2 C43.55 1.67 22.1 1.34 0 1 C0 0.67 0 0.34 0 0 Z " fill="#A71512" transform="translate(319,165)"/>
<path d="M0 0 C2.4377963 -0.05397335 4.87439685 -0.09365616 7.3125 -0.125 C8.00279297 -0.14175781 8.69308594 -0.15851562 9.40429688 -0.17578125 C13.17135396 -0.21217794 14.78431704 -0.14378864 18 2 C18.1875 5.125 18.1875 5.125 18 8 C17.67 8 17.34 8 17 8 C16.67 6.35 16.34 4.7 16 3 C9.07 2.505 9.07 2.505 2 2 C2 4.31 2 6.62 2 9 C5.96 9 9.92 9 14 9 C14 9.33 14 9.66 14 10 C9.38 10 4.76 10 0 10 C0 6.7 0 3.4 0 0 Z " fill="#080808" transform="translate(608,855)"/>
<path d="M0 0 C4.62 0 9.24 0 14 0 C10.32326162 1.83836919 6.95007553 2.93651813 3 4 C2.67 5.98 2.34 7.96 2 10 C7.28 10 12.56 10 18 10 C18 10.33 18 10.66 18 11 C12.06 11 6.12 11 0 11 C0 7.37 0 3.74 0 0 Z " fill="#040405" transform="translate(608,877)"/>
<path d="M0 0 C3.10523354 0.08088175 6.20850333 0.1937189 9.3125 0.3125 C10.63411133 0.34633789 10.63411133 0.34633789 11.98242188 0.38085938 C13.25375977 0.4340332 13.25375977 0.4340332 14.55078125 0.48828125 C15.72120972 0.52755737 15.72120972 0.52755737 16.9152832 0.56762695 C19.44921166 1.0931671 20.36927777 2.0408526 22 4 C15.97968656 4.60965199 10.05329744 5.13451772 4 5 C4 4.34 4 3.68 4 3 C2.68 3 1.36 3 0 3 C0 2.01 0 1.02 0 0 Z " fill="#E5D7D2" transform="translate(376,812)"/>
<path d="M0 0 C0.33 0.66 0.66 1.32 1 2 C0.33333333 4 -0.33333333 6 -1 8 C-1.44084409 10.66423169 -1.72188815 13.31158543 -2 16 C-2.66 16 -3.32 16 -4 16 C-3.79375 16.763125 -3.5875 17.52625 -3.375 18.3125 C-3 21 -3 21 -5 24 C-5.05454409 21.64551325 -5.0939279 19.29232125 -5.125 16.9375 C-5.14820313 15.62652344 -5.17140625 14.31554687 -5.1953125 12.96484375 C-4.99768758 8.95305791 -4.41555339 5.75449757 -3 2 C-2.01 1.34 -1.02 0.68 0 0 Z " fill="#161616" transform="translate(566,623)"/>
<path d="M0 0 C0.33 0 0.66 0 1 0 C1 4.62 1 9.24 1 14 C-1.69770258 15.34885129 -3.65273375 15.01578483 -6.6640625 14.87890625 C-7.78554688 14.83056641 -8.90703125 14.78222656 -10.0625 14.73242188 C-11.8259375 14.64831055 -11.8259375 14.64831055 -13.625 14.5625 C-14.80835938 14.51029297 -15.99171875 14.45808594 -17.2109375 14.40429688 C-20.14087561 14.27433994 -23.07049673 14.13936472 -26 14 C-26 13.67 -26 13.34 -26 13 C-17.75 13 -9.5 13 -1 13 C-1 9.04 -1 5.08 -1 1 C-0.67 0.67 -0.34 0.34 0 0 Z " fill="#141414" transform="translate(495,864)"/>
<path d="M0 0 C0.66 0 1.32 0 2 0 C2 0.66 2 1.32 2 2 C4.97 2.66 7.94 3.32 11 4 C11 4.33 11 4.66 11 5 C2.42 5 -6.16 5 -15 5 C-15 4.67 -15 4.34 -15 4 C-10.05 4 -5.1 4 0 4 C0 2.68 0 1.36 0 0 Z " fill="#E3DED8" transform="translate(583,822)"/>
<path d="M0 0 C0.69867188 0.15597656 1.39734375 0.31195312 2.1171875 0.47265625 C3.48230469 0.76462891 3.48230469 0.76462891 4.875 1.0625 C6.23238281 1.35833984 6.23238281 1.35833984 7.6171875 1.66015625 C10.01014125 2.23202157 10.01014125 2.23202157 12 1 C12.33 2.98 12.66 4.96 13 7 C7.06 5.515 7.06 5.515 1 4 C0.67 2.68 0.34 1.36 0 0 Z " fill="#E7DED9" transform="translate(391,742)"/>
<path d="M0 0 C0.66 0 1.32 0 2 0 C4.77471079 6.24309927 5.37634203 11.19796625 5 18 C4.01 18 3.02 18 2 18 C1.67 18.66 1.34 19.32 1 20 C1.33 18.02 1.66 16.04 2 14 C2.66 14 3.32 14 4 14 C2.68 9.38 1.36 4.76 0 0 Z " fill="#EAECE8" transform="translate(640,742)"/>
<path d="M0 0 C2.97343996 1.02532413 3.99860466 1.99797917 5.8125 4.625 C7.39710361 9.12861027 7.12376774 11.35509333 6 16 C3.9375 18.5 3.9375 18.5 2 20 C1.34 19.67 0.68 19.34 0 19 C0.66 18.34 1.32 17.68 2 17 C4.11410237 13.82884645 4.57935612 11.80502818 4.40625 8.00390625 C3.73253364 4.68067073 2.10178637 2.62723297 0 0 Z " fill="#E31614" transform="translate(610,416)"/>
<path d="M0 0 C0 0.99 0 1.98 0 3 C-3.73487777 2.5020163 -5.81237635 2.12508244 -9 0 C-12.19806665 -0.4603764 -12.19806665 -0.4603764 -15.6875 -0.625 C-17.45673828 -0.73714844 -17.45673828 -0.73714844 -19.26171875 -0.8515625 C-20.16535156 -0.90054688 -21.06898438 -0.94953125 -22 -1 C-22 -1.33 -22 -1.66 -22 -2 C-13.94484091 -3.03335117 -7.48957478 -3.42546443 0 0 Z " fill="#E0DCD7" transform="translate(661,828)"/>
<path d="M0 0 C0.99 0.33 1.98 0.66 3 1 C3.05384521 3.29141286 3.09272087 5.58318188 3.125 7.875 C3.14820313 9.15117188 3.17140625 10.42734375 3.1953125 11.7421875 C3 15 3 15 1 17 C0.06576355 13.98968256 -0.04449911 13.13349732 1 10 C0.67 9.34 0.34 8.68 0 8 C-0.13415472 5.3276379 -0.04318541 2.67749512 0 0 Z " fill="#171717" transform="translate(436,631)"/>
<path d="M0 0 C2.24689966 4.49379932 2.24689966 4.49379932 1.1875 8.4375 C0.98769531 9.21867187 0.78789063 9.99984375 0.58203125 10.8046875 C0.38996094 11.52914063 0.19789063 12.25359375 0 13 C-0.33986667 14.66534667 -0.67702486 16.33129513 -1 18 C-1.99 18 -2.98 18 -4 18 C-2.68 12.06 -1.36 6.12 0 0 Z " fill="#1C1C1B" transform="translate(721,283)"/>
<path d="M0 0 C0.66 0.99 1.32 1.98 2 3 C1.125 5.6875 1.125 5.6875 0 8 C-0.66 8 -1.32 8 -2 8 C-2.33 10.97 -2.66 13.94 -3 17 C-3.66 17 -4.32 17 -5 17 C-4.53444296 10.59859065 -2.85288164 5.73230171 0 0 Z " fill="#161514" transform="translate(344,848)"/>
<path d="M0 0 C1.32 0.99 2.64 1.98 4 3 C3.67 3.66 3.34 4.32 3 5 C1.68 5 0.36 5 -1 5 C-1 9.95 -1 14.9 -1 20 C-1.33 20 -1.66 20 -2 20 C-2 14.39 -2 8.78 -2 3 C-1.34 3 -0.68 3 0 3 C0 2.01 0 1.02 0 0 Z " fill="#E6DED9" transform="translate(546,725)"/>
<path d="M0 0 C4.17073171 5.56097561 4.17073171 5.56097561 3.5625 10.6875 C3.376875 11.780625 3.19125 12.87375 3 14 C2.01 13.67 1.02 13.34 0 13 C0 8.71 0 4.42 0 0 Z " fill="#E7DBD7" transform="translate(433,770)"/>
<path d="M0 0 C1.66611905 -0.042721 3.33382885 -0.04063832 5 0 C6 1 6 1 6.0625 4.0625 C6.041875 5.031875 6.02125 6.00125 6 7 C5.01 7.33 4.02 7.66 3 8 C1.92474806 5.34771188 0.90543849 2.71631546 0 0 Z " fill="#D11A15" transform="translate(286,339)"/>
<path d="M0 0 C5.61 0 11.22 0 17 0 C13.89634272 2.06910486 13.35194595 2.22287574 9.875 2.0625 C7.956875 2.0315625 7.956875 2.0315625 6 2 C5.67 2.33 5.34 2.66 5 3 C3.00041636 3.04080783 0.99954746 3.04254356 -1 3 C-0.67 2.01 -0.34 1.02 0 0 Z " fill="#171717" transform="translate(594,598)"/>
<path d="M0 0 C5.28 0 10.56 0 16 0 C17 4 17 4 16.0625 6.25 C15.5365625 7.11625 15.5365625 7.11625 15 8 C15 6.02 15 4.04 15 2 C9.72 2 4.44 2 -1 2 C-0.67 1.34 -0.34 0.68 0 0 Z " fill="#010D0D" transform="translate(356,523)"/>
<path d="M0 0 C2.97 0.495 2.97 0.495 6 1 C5.58427734 1.77923828 5.58427734 1.77923828 5.16015625 2.57421875 C3.19266733 6.36216005 1.53662611 9.70699113 1 14 C0.67 14 0.34 14 0 14 C0.09539062 13.30132812 0.19078125 12.60265625 0.2890625 11.8828125 C0.39992188 10.97273438 0.51078125 10.06265625 0.625 9.125 C0.79902344 7.76761719 0.79902344 7.76761719 0.9765625 6.3828125 C0.98429687 5.59648437 0.99203125 4.81015625 1 4 C0.34 3.34 -0.32 2.68 -1 2 C-0.67 1.34 -0.34 0.68 0 0 Z " fill="#E21815" transform="translate(359,316)"/>
<path d="M0 0 C4.62 0 9.24 0 14 0 C13.67 1.65 13.34 3.3 13 5 C12.01 5 11.02 5 10 5 C10 4.01 10 3.02 10 2 C6.37114676 1.84850702 6.37114676 1.84850702 3 3 C3 2.34 3 1.68 3 1 C2.01 0.67 1.02 0.34 0 0 Z " fill="#E4DED9" transform="translate(627,589)"/>
<path d="M0 0 C0.33 0 0.66 0 1 0 C1.66 3.96 2.32 7.92 3 12 C2.01 11.67 1.02 11.34 0 11 C-1.26026798 8.47946405 -0.91874445 7.1457902 -0.5625 4.375 C-0.46066406 3.55773437 -0.35882813 2.74046875 -0.25390625 1.8984375 C-0.17011719 1.27195312 -0.08632813 0.64546875 0 0 Z " fill="#DDDAD7" transform="translate(279,423)"/>
<path d="M0 0 C0.99 0.33 1.98 0.66 3 1 C3.33 2.32 3.66 3.64 4 5 C-1.61 5 -7.22 5 -13 5 C-13 4.67 -13 4.34 -13 4 C-8.71 4 -4.42 4 0 4 C0 2.68 0 1.36 0 0 Z " fill="#CBC5C2" transform="translate(463,341)"/>
<path d="M0 0 C0.99 0.33 1.98 0.66 3 1 C2.360625 1.2475 1.72125 1.495 1.0625 1.75 C0.381875 2.1625 -0.29875 2.575 -1 3 C-1.12375 3.66 -1.2475 4.32 -1.375 5 C-1.58125 5.66 -1.7875 6.32 -2 7 C-5.0625 8.25 -5.0625 8.25 -8 9 C-7.04270084 7.87411986 -6.08412105 6.7493285 -5.125 5.625 C-4.59132813 4.99851563 -4.05765625 4.37203125 -3.5078125 3.7265625 C-2.38567993 2.44163349 -1.20628025 1.20628025 0 0 Z " fill="#E31916" transform="translate(625,248)"/>
<path d="M0 0 C0.99 0.33 1.98 0.66 3 1 C2.38461538 8.50769231 2.38461538 8.50769231 0.4375 11 C-0.036875 11.33 -0.51125 11.66 -1 12 C-0.835 10.948125 -0.67 9.89625 -0.5 8.8125 C-0.10430322 5.79531204 0.09178971 3.02906028 0 0 Z " fill="#1A1918" transform="translate(819,237)"/>
<path d="M0 0 C6.875 0.875 6.875 0.875 8 2 C8.04063832 3.66617115 8.042721 5.33388095 8 7 C7.01 7 6.02 7 5 7 C4.9175 6.401875 4.835 5.80375 4.75 5.1875 C3.79544128 2.4033704 2.42867729 1.56688858 0 0 Z " fill="#141414" transform="translate(548,880)"/>
<path d="M0 0 C3 3.75 3 3.75 3 6 C-0.01031744 6.93423645 -0.86650268 7.04449911 -4 6 C-4 5.34 -4 4.68 -4 4 C-2.68 3.67 -1.36 3.34 0 3 C0 2.01 0 1.02 0 0 Z " fill="#E4DFDA" transform="translate(669,907)"/>
<path d="M0 0 C1.20628008 2.33214148 2.1654738 4.49642139 3 7 C3.99 7.33 4.98 7.66 6 8 C4.68 9.65 3.36 11.3 2 13 C0.54815522 8.46298506 -0.23509196 4.81938524 0 0 Z " fill="#070606" transform="translate(298,503)"/>
<path d="M0 0 C0.33 0.66 0.66 1.32 1 2 C0.34 3.65 -0.32 5.3 -1 7 C-4.63 6.67 -8.26 6.34 -12 6 C-12 5.67 -12 5.34 -12 5 C-10.01432292 4.77213542 -8.02864583 4.54427083 -6.04296875 4.31640625 C-3.80603607 4.02829265 -3.80603607 4.02829265 -1 3 C-0.67 2.01 -0.34 1.02 0 0 Z " fill="#E21813" transform="translate(531,489)"/>
<path d="M0 0 C0.99266409 2.68019304 1.066309 3.80580936 0.125 6.5625 C-0.24625 7.366875 -0.6175 8.17125 -1 9 C-1.33 9.99 -1.66 10.98 -2 12 C-2.66 11.67 -3.32 11.34 -4 11 C-3.34 8.36 -2.68 5.72 -2 3 C-1.34 3 -0.68 3 0 3 C0 2.01 0 1.02 0 0 Z " fill="#171717" transform="translate(731,250)"/>
<path d="M0 0 C0.99 0.33 1.98 0.66 3 1 C3 1.99 3 2.98 3 4 C2.34 4 1.68 4 1 4 C1.33 4.99 1.66 5.98 2 7 C0.68 6.67 -0.64 6.34 -2 6 C-1.125 1.125 -1.125 1.125 0 0 Z " fill="#E5DFD9" transform="translate(403,1016)"/>
<path d="M0 0 C2.9297008 2.82506863 5.50174717 5.78796065 8 9 C4.65510004 8.40269644 2.42082645 7.42082645 0 5 C-0.25 2.3125 -0.25 2.3125 0 0 Z " fill="#181817" transform="translate(377,887)"/>
<path d="M0 0 C7.57142857 1.85714286 7.57142857 1.85714286 10 5 C9.67 5.66 9.34 6.32 9 7 C6.03 5.35 3.06 3.7 0 2 C0 1.34 0 0.68 0 0 Z " fill="#1A1A1A" transform="translate(329,574)"/>
<path d="M0 0 C0.33 0 0.66 0 1 0 C2.42857143 8.57142857 2.42857143 8.57142857 0 12 C-1.28571429 3.42857143 -1.28571429 3.42857143 0 0 Z " fill="#DDDAD6" transform="translate(291,477)"/>
<path d="M0 0 C2 2 2 2 4 5 C3.625 8.6875 3.625 8.6875 3 12 C0.97649676 8.96474514 0.67875982 7.80573798 0.375 4.3125 C0.30023438 3.50425781 0.22546875 2.69601562 0.1484375 1.86328125 C0.09945313 1.24839844 0.05046875 0.63351562 0 0 Z " fill="#E51916" transform="translate(309,437)"/>
<path d="M0 0 C1.32 0 2.64 0 4 0 C4.33 1.98 4.66 3.96 5 6 C3.68 6 2.36 6 1 6 C1.33 4.35 1.66 2.7 2 1 C1.34 0.67 0.68 0.34 0 0 Z " fill="#E8DDD9" transform="translate(399,729)"/>
<path d="M0 0 C0.66 0.66 1.32 1.32 2 2 C-0.88035092 4.24027294 -3.84866512 6.16172132 -7 8 C-5.50902342 4.2047869 -3.24299151 2.38957269 0 0 Z " fill="#C7100D" transform="translate(578,712)"/>
<path d="M0 0 C1.98 0 3.96 0 6 0 C6.66 1.32 7.32 2.64 8 4 C5.36 3.67 2.72 3.34 0 3 C0 2.01 0 1.02 0 0 Z " fill="#DEDAD5" transform="translate(402,851)"/>
<path d="M0 0 C1.45903258 0.30921884 2.91720722 0.62248799 4.375 0.9375 C5.18710937 1.11152344 5.99921875 1.28554688 6.8359375 1.46484375 C9 2 9 2 11 3 C10 4 10 4 6.625 4.25 C3 4 3 4 1.0625 2.5625 C0 1 0 1 0 0 Z " fill="#E5DFDB" transform="translate(335,581)"/>
<path d="M0 0 C0.33 0 0.66 0 1 0 C1 4.29 1 8.58 1 13 C0.67 13 0.34 13 0 13 C-0.66 10.36 -1.32 7.72 -2 5 C-1.34 5 -0.68 5 0 5 C0 3.35 0 1.7 0 0 Z " fill="#E7DFD9" transform="translate(346,729)"/>
<path d="M0 0 C2.39763185 2.39763185 2.34280586 3.33273498 2.625 6.625 C2.69976563 7.44226563 2.77453125 8.25953125 2.8515625 9.1015625 C2.90054688 9.72804688 2.94953125 10.35453125 3 11 C0.86466828 8.40046573 -0.56459104 6.37441946 -1 3 C-0.67 2.01 -0.34 1.02 0 0 Z " fill="#1A1A1A" transform="translate(564,650)"/>
<path d="M0 0 C0.33 0 0.66 0 1 0 C1.1875 3.375 1.1875 3.375 1 7 C0.01 7.66 -0.98 8.32 -2 9 C-1.125 1.125 -1.125 1.125 0 0 Z " fill="#E2E0DE" transform="translate(696,497)"/>
<path d="M0 0 C1.73662334 3.22515763 2.8905928 6.51329166 4 10 C3.34 10.66 2.68 11.32 2 12 C0.70756464 7.8803623 -0.26252625 4.33168317 0 0 Z " fill="#E31815" transform="translate(304,415)"/>
<path d="M0 0 C0 0.99 0 1.98 0 3 C-0.99 3.66 -1.98 4.32 -3 5 C-3.99 4.67 -4.98 4.34 -6 4 C-6 3.34 -6 2.68 -6 2 C-4.02 1.34 -2.04 0.68 0 0 Z " fill="#E5D9D6" transform="translate(412,809)"/>
<path d="M0 0 C0.99 1.32 1.98 2.64 3 4 C2.34 4 1.68 4 1 4 C0.67 4.99 0.34 5.98 0 7 C-0.99 6.67 -1.98 6.34 -3 6 C-2.01 4.02 -1.02 2.04 0 0 Z " fill="#E6DDDA" transform="translate(667,779)"/>
<path d="M0 0 C0.66 0.66 1.32 1.32 2 2 C1.9765625 4.1640625 1.9765625 4.1640625 1.625 6.625 C1.51414062 7.44226563 1.40328125 8.25953125 1.2890625 9.1015625 C1.19367187 9.72804688 1.09828125 10.35453125 1 11 C0.67 11 0.34 11 0 11 C-0.19491452 9.54263913 -0.38069358 8.08405407 -0.5625 6.625 C-0.66691406 5.81289063 -0.77132812 5.00078125 -0.87890625 4.1640625 C-1 2 -1 2 0 0 Z " fill="#CA2221" transform="translate(670,760)"/>
<path d="M0 0 C0.33 0.66 0.66 1.32 1 2 C-2.98196457 3.05404945 -5.98195309 2.84098656 -10 2 C-10 1.67 -10 1.34 -10 1 C-6.59437148 0.22157062 -3.49234244 -0.09978121 0 0 Z " fill="#191919" transform="translate(618,677)"/>
<path d="M0 0 C0.82638376 2.89234315 1 4.88742431 1 8 C0.01 8.33 -0.98 8.66 -2 9 C-1.125 2.25 -1.125 2.25 0 0 Z " fill="#20201F" transform="translate(471,192)"/>
</svg>
