<?xml version="1.0" encoding="UTF-8"?>
<svg version="1.1" xmlns="http://www.w3.org/2000/svg" width="1024" height="1024">
<path d="M0 0 C337.92 0 675.84 0 1024 0 C1024 337.92 1024 675.84 1024 1024 C686.08 1024 348.16 1024 0 1024 C0 686.08 0 348.16 0 0 Z " fill="#FEFEFE" transform="translate(0,0)"/>
<path d="M0 0 C1.01894852 -0.00997513 2.03789703 -0.01995026 3.08772278 -0.03022766 C4.19482605 -0.03089233 5.30192932 -0.03155701 6.44258118 -0.03224182 C8.2044854 -0.0447271 8.2044854 -0.0447271 10.00198364 -0.0574646 C13.2171647 -0.0774122 16.43219556 -0.08820221 19.64743018 -0.09329104 C21.6601757 -0.09694186 23.67289661 -0.1031858 25.68563271 -0.11029243 C32.71920991 -0.13477385 39.75271356 -0.14783507 46.78633118 -0.15138245 C53.32284593 -0.15501225 59.85888957 -0.18487046 66.39526051 -0.22678703 C72.02181419 -0.26159249 77.64821258 -0.27693268 83.27487308 -0.27762848 C86.62889989 -0.27841814 89.98206685 -0.28940976 93.33605003 -0.31562614 C97.08421247 -0.3425873 100.83108888 -0.33769881 104.57929993 -0.32521057 C105.67628204 -0.34004486 106.77326416 -0.35487915 107.90348816 -0.37016296 C116.30127189 -0.29079301 123.1225812 1.74408973 129.30708313 7.62571716 C129.83173157 8.37595154 130.35638 9.12618591 130.89692688 9.89915466 C131.71870422 11.0322406 131.71870422 11.0322406 132.55708313 12.18821716 C135.04060044 16.24386928 134.97381902 19.94913011 134.9546814 24.54434204 C134.95596303 25.66299675 134.95596303 25.66299675 134.95727056 26.80425054 C134.95892131 29.31011194 134.95341059 31.81590682 134.94795227 34.32176208 C134.94767029 36.11528522 134.94782835 37.90880847 134.94839478 39.70233154 C134.94868231 44.57804152 134.94279267 49.45372702 134.93582082 54.3294313 C134.92957997 59.42235805 134.9289829 64.51528534 134.92779541 69.60821533 C134.92468426 79.25543034 134.91647376 88.90263406 134.90644592 98.54984409 C134.8952781 109.53156534 134.88977264 120.51328713 134.88475049 131.49501264 C134.87429098 154.08806646 134.85649485 176.68110946 134.83442688 199.27415466 C140.44442688 199.27415466 146.05442688 199.27415466 151.83442688 199.27415466 C151.34329407 198.20165466 150.85216125 197.12915466 150.34614563 196.02415466 C148.26991603 190.4875424 148.50438536 185.11470222 148.64692688 179.27415466 C148.66046204 178.21325623 148.67399719 177.15235779 148.6879425 176.05931091 C148.72301809 173.46371779 148.77216844 170.86921399 148.83442688 168.27415466 C150.48442688 168.27415466 152.13442688 168.27415466 153.83442688 168.27415466 C153.83073971 167.6733886 153.82705254 167.07262253 153.82325363 166.45365143 C153.73478936 151.81342503 153.6686623 137.17321447 153.62717819 122.53278351 C153.6065818 115.45266094 153.57851759 108.37271715 153.53266907 101.29270935 C153.48843461 94.45867217 153.46528125 87.62482076 153.45491791 80.79064941 C153.44753354 78.18477457 153.43311366 75.57890974 153.41150665 72.97311401 C153.38242301 69.31998328 153.37847314 65.66761713 153.38032532 62.01438904 C153.36594421 60.9397641 153.35156311 59.86513916 153.33674622 58.75794983 C153.3776891 51.28317356 154.69949725 46.22523385 159.43989563 40.25071716 C160.2230011 39.58169373 160.2230011 39.58169373 161.02192688 38.89915466 C161.78569641 38.2069281 161.78569641 38.2069281 162.56489563 37.50071716 C171.23065554 32.81732885 181.99731095 33.99800613 191.54389954 34.03123474 C193.33680287 34.03016057 195.12970586 34.02821988 196.92260742 34.02548218 C201.77159799 34.02065296 206.6204959 34.02826508 211.46947527 34.03843522 C216.5524182 34.04724633 221.63535849 34.04545769 226.7183075 34.04507446 C235.25051923 34.04600966 243.78269529 34.05467477 252.31489563 34.06834412 C262.17210334 34.08407813 272.02927205 34.08934177 281.88649142 34.08860856 C292.39446361 34.08793258 302.90242081 34.09487557 313.41038847 34.10405517 C316.43310955 34.10618388 319.4558282 34.10689599 322.47854996 34.10729408 C327.23099756 34.10830032 331.98341255 34.11441994 336.73584938 34.12446022 C338.4777017 34.12737489 340.21955777 34.12861268 341.96141243 34.12803268 C344.3429159 34.12753987 346.72432888 34.13321837 349.1058197 34.14044189 C350.13409156 34.13811899 350.13409156 34.13811899 351.18313658 34.13574916 C359.99153632 34.17972575 365.40879096 35.25361318 371.83442688 41.27415466 C375.74304353 46.28520164 376.96138615 49.9481193 376.9546814 56.19694519 C376.95674339 57.68187721 376.95674339 57.68187721 376.95884705 59.19680786 C376.95525177 60.27646317 376.95165649 61.35611847 376.94795227 62.4684906 C376.9480983 63.61024246 376.94824432 64.75199432 376.94839478 65.92834473 C376.94769769 69.70509231 376.93991475 73.48179068 376.93208313 77.25852966 C376.93021823 79.87598137 376.92879467 82.49343343 376.92779541 85.11088562 C376.92468842 91.29793039 376.91648355 97.48495747 376.90644592 103.67199445 C376.89526516 110.71669074 376.88976938 117.76138788 376.88475049 124.80609083 C376.87430042 139.29545456 376.8567132 153.78480437 376.83442688 168.27415466 C379.14442688 168.27415466 381.45442688 168.27415466 383.83442688 168.27415466 C383.83442688 172.23415466 383.83442688 176.19415466 383.83442688 180.27415466 C387.79442688 180.27415466 391.75442688 180.27415466 395.83442688 180.27415466 C395.97497498 178.73295959 395.97497498 178.73295959 396.11836243 177.16062927 C396.93387994 170.68318891 398.6833579 164.40675192 400.29145813 158.09056091 C400.63962199 156.70793836 400.98732525 155.32519976 401.33459473 153.94235229 C402.24794772 150.30978472 403.1667272 146.67861305 404.08692932 143.04777527 C405.54727591 137.28167436 406.9989685 131.51338829 408.45130539 125.74526596 C408.97539192 123.66720135 409.5017836 121.58973128 410.02854919 119.51234436 C411.44627383 113.90823855 412.85286987 108.30593492 414.09761047 102.66038513 C414.36029976 101.47532631 414.36029976 101.47532631 414.6282959 100.2663269 C415.05029648 98.32492603 415.45455938 96.37969008 415.85664368 94.43406677 C417.89412559 87.84951537 421.83644621 83.74889404 427.5973053 80.18293762 C430.53245317 78.99059636 432.96110967 79.0051534 436.12837219 78.98362732 C437.40359741 78.97086761 438.67882263 78.95810791 439.99269104 78.94496155 C441.38264311 78.94190316 442.77259721 78.93967579 444.16255188 78.93821716 C445.59498731 78.93178572 447.02742142 78.9250571 448.45985413 78.91804504 C451.46250958 78.90607696 454.46505005 78.90236354 457.46772766 78.90354919 C461.29871959 78.90375194 465.12896599 78.87649477 468.95978165 78.84200478 C471.91966576 78.81966346 474.87937281 78.8157139 477.83933258 78.81676865 C479.25061859 78.81442182 480.66191016 78.8056504 482.07311249 78.79010391 C490.97402564 78.70125698 497.89058156 78.80874599 504.77192688 85.02415466 C507.12258345 90.00201563 507.25288715 93.8792871 505.70942688 99.02415466 C503.40787392 103.01351313 500.93049128 105.22612246 496.83442688 107.27415466 C495.10915567 107.39332634 493.3794979 107.45132793 491.65034485 107.47947693 C490.02889053 107.50939476 490.02889053 107.50939476 488.37467957 107.53991699 C486.6183873 107.56498573 486.6183873 107.56498573 484.82661438 107.59056091 C483.63085785 107.61134201 482.43510132 107.63212311 481.20310974 107.65353394 C477.37194224 107.71907755 473.5407045 107.77793685 469.70942688 107.83665466 C467.11697161 107.8798353 464.52452352 107.92344943 461.93208313 107.96751404 C455.56627261 108.07476385 449.20039175 108.17652126 442.83442688 108.27415466 C438.36879341 124.66901011 434.0546315 141.09576324 429.89427185 157.57063293 C425.47747164 175.0562791 421.01682746 192.52852013 416.39692688 209.96165466 C411.23356951 229.45883589 406.1863519 248.98855784 401.6945343 268.65330505 C400.6525309 273.13338581 399.48199003 277.56332189 398.22819519 281.98905945 C394.50944161 295.1257161 391.31220533 308.38494301 388.08442688 321.64915466 C386.83707883 326.75755787 385.58777692 331.86548244 384.33833313 336.97337341 C384.03345474 338.22078812 383.72857635 339.46820282 383.41445923 340.75341797 C380.81750183 351.36931199 378.16933756 361.97181422 375.48939514 372.56703186 C373.41607012 380.77066104 371.42177023 388.98670695 369.53364563 397.23509216 C356.91954356 452.25116055 356.91954356 452.25116055 336.85005188 471.12181091 C336.34063049 471.60561218 335.83120911 472.08941345 335.30635071 472.58787537 C333.84374758 473.95692774 332.35335397 475.29610997 330.86177063 476.63352966 C328.50547935 479.10616839 328.50547935 479.10616839 329.00630188 482.18821716 C329.27958313 483.20657654 329.55286438 484.22493591 329.83442688 485.27415466 C330.80688061 498.44213463 328.46690172 509.99557597 319.83442688 520.27415466 C311.94389593 528.4867481 302.97935362 534.04099622 291.34614563 534.61009216 C277.65324692 534.86762561 268.10822924 532.95637531 257.83442688 523.27415466 C249.1481002 513.62053102 245.30138438 502.93415139 245.52192688 489.97727966 C246.33060352 480.39446147 249.35199264 472.3687316 255.83442688 465.27415466 C256.33587219 464.67087341 256.8373175 464.06759216 257.35395813 463.44602966 C263.64862385 456.40090502 272.87496501 451.68353211 282.30317688 451.03587341 C291.99091971 450.77208929 301.134553 451.3851333 309.41645813 457.03587341 C311.70560798 458.54380942 311.70560798 458.54380942 313.86177063 457.76243591 C316.35401888 455.88214565 318.32592715 453.79897585 320.39692688 451.46165466 C321.16134094 450.60958435 321.925755 449.75751404 322.71333313 448.87962341 C324.70033627 446.43886634 326.24880727 443.98423082 327.83442688 441.27415466 C327.23707133 441.27355757 326.63971578 441.27296049 326.02425855 441.2723453 C290.57560189 441.23640723 255.12703717 441.17970066 219.67845979 441.09623371 C215.41672846 441.08621693 211.15499675 441.07637269 206.89326477 441.06663513 C206.04487422 441.06469376 205.19648366 441.06275239 204.32238431 441.06075218 C190.60731927 441.02977889 176.89227094 441.0127646 163.17717754 441.00096044 C149.09145304 440.98852463 135.00581587 440.96096858 120.92014652 440.9195416 C112.23705268 440.89447556 103.55410377 440.88103233 94.87097324 440.88272509 C88.90676638 440.88275498 82.94270654 440.86802318 76.97855704 440.84199038 C73.54377981 440.82742435 70.109304 440.8190719 66.67450142 440.82835197 C40.14698548 440.87574334 40.14698548 440.87574334 27.83442688 436.27415466 C26.71173731 435.86182146 26.71173731 435.86182146 25.56636715 435.44115829 C10.44848738 429.31964398 0.35497854 418.2336699 -6.36894226 403.66722107 C-10.59701326 393.4939126 -12.6969603 382.88801318 -14.97807312 372.14915466 C-15.41430916 370.1335175 -15.85174489 368.11813964 -16.29032898 366.10301208 C-16.9543594 363.0520034 -17.61781637 360.00089007 -18.27752686 356.94894409 C-20.03133758 348.84167465 -21.86956474 340.75615415 -23.74375916 332.67601013 C-25.92935359 323.24724279 -28.07269645 313.81247261 -30.06401062 304.34056091 C-30.30867821 303.17752693 -30.30867821 303.17752693 -30.55828857 301.99099731 C-30.72493515 301.1986116 -30.89158173 300.40622589 -31.0632782 299.58982849 C-35.75423869 277.28855457 -40.86274436 255.09142712 -46.04057312 232.89915466 C-46.2305827 232.08426323 -46.42059227 231.2693718 -46.61635971 230.42978668 C-47.89838687 224.93198546 -49.18335072 219.43487733 -50.47026062 213.93821716 C-50.63651381 213.22719093 -50.80276699 212.5161647 -50.97405815 211.78359222 C-51.45080747 209.74587053 -51.92877379 207.7084389 -52.40727234 205.67112732 C-52.70164185 204.41769531 -52.99601135 203.16426331 -53.29930115 201.87284851 C-54.34984968 197.50862729 -55.4779468 193.16664258 -56.63923645 188.8306427 C-57.46287501 184.83011939 -57.47915098 181.15916069 -56.16557312 177.27415466 C-53.55316777 173.95569381 -51.05632873 171.85723539 -47.16557312 170.27415466 C-44.60014343 170.04710388 -44.60014343 170.04710388 -41.74369812 170.07884216 C-40.20649109 170.08851013 -40.20649109 170.08851013 -38.63822937 170.09837341 C-37.04301453 170.12351013 -37.04301453 170.12351013 -35.41557312 170.14915466 C-34.33662781 170.1581781 -33.2576825 170.16720154 -32.14604187 170.17649841 C-29.48566034 170.20004161 -26.82572976 170.23292668 -24.16557312 170.27415466 C-24.16741671 169.52485215 -24.16926029 168.77554964 -24.17115974 168.00354099 C-24.21537853 149.74943923 -24.24844902 131.4953482 -24.26919746 113.24120426 C-24.27949861 104.41354508 -24.29353671 95.58592171 -24.31645203 86.75828552 C-24.33642149 79.06178861 -24.349298 71.36531763 -24.35375011 63.66879553 C-24.35635147 59.59567295 -24.36244153 55.52262457 -24.37703323 51.44952583 C-24.3906734 47.61070176 -24.39478283 43.771982 -24.39178848 39.93313599 C-24.39233578 38.52914805 -24.39627475 37.12515638 -24.40398407 35.7211895 C-24.51208997 15.00631544 -24.51208997 15.00631544 -17.16557312 7.27415466 C-12.01999613 2.83506422 -6.92271833 0.03649829 0 0 Z " fill="#0F1010" transform="translate(315.1655731201172,146.72584533691406)"/>
<path d="M0 0 C1.16786429 -0.00623996 2.33572857 -0.01247993 3.53898269 -0.01890898 C6.73996579 -0.03198532 9.94032875 -0.02744062 13.14129508 -0.0149641 C16.60894263 -0.00584063 20.07651211 -0.01991894 23.54414368 -0.03088379 C30.32030922 -0.0485948 37.09629674 -0.04486285 43.87246903 -0.03323323 C49.38171788 -0.02417202 54.8909171 -0.02298647 60.40017128 -0.02732849 C61.18650064 -0.02794142 61.97282999 -0.02855436 62.78298751 -0.02918586 C64.38073527 -0.03046485 65.97848301 -0.0317617 67.57623074 -0.03307623 C82.52865571 -0.04445969 97.4809823 -0.03140232 112.43339113 -0.00987476 C125.24859675 0.00800469 138.06365745 0.00488083 150.87886047 -0.0135498 C165.78517041 -0.034978 180.69139439 -0.04337227 195.59771758 -0.03110075 C197.18842398 -0.02982663 198.77913039 -0.02856915 200.36983681 -0.02732849 C201.15236627 -0.02671139 201.93489574 -0.02609429 202.74113822 -0.02545848 C208.24194331 -0.02201221 213.74269361 -0.02781808 219.24349022 -0.0372467 C225.94950587 -0.04848932 232.65533435 -0.04537887 239.36132868 -0.02412373 C242.77938736 -0.01364515 246.19713446 -0.00943649 249.61519051 -0.02272034 C253.32694023 -0.03367479 257.03781736 -0.01991158 260.74951172 0 C261.82043601 -0.00892289 262.89136031 -0.01784577 263.99473685 -0.02703905 C276.3487107 0.10122725 284.87189187 5.0321265 293.6608429 13.38684082 C298.22610323 18.19493415 300.69355713 23.21468039 302.6842804 29.50793457 C302.87635071 30.11250488 303.06842102 30.7170752 303.26631165 31.33996582 C305.59425667 43.41482084 303.53166243 56.17585237 297.4342804 66.82043457 C290.7535896 76.44550276 282.48815844 82.29955583 271.07994235 85.08038449 C266.4574205 85.90535881 261.81089748 85.78900896 257.12841797 85.77536011 C255.40858939 85.78215678 255.40858939 85.78215678 253.65401679 85.78909075 C249.8212086 85.80172702 245.98854264 85.80011486 242.15571594 85.79846191 C239.4039405 85.80336243 236.65217496 85.81119692 233.90040588 85.81881714 C227.20682474 85.83539699 220.51327883 85.8409253 213.81967887 85.84204189 C208.37659492 85.84299373 202.93352256 85.8471108 197.49044228 85.85344315 C182.0435784 85.87104677 166.59674226 85.88028331 151.14986827 85.8787822 C150.3179357 85.87870229 149.48600313 85.87862237 148.62886047 85.87854004 C147.79590715 85.87845828 146.96295383 85.87837652 146.10475949 85.87829228 C132.60731084 85.87747947 119.10997381 85.89661814 105.61255743 85.92481677 C91.73908086 85.95357139 77.86565868 85.96735567 63.99215156 85.96562922 C56.2090008 85.96496624 48.42596709 85.97041806 40.64284325 85.99198532 C34.01616977 86.01023103 27.38966641 86.0145167 20.76297864 86.00096647 C17.38524769 85.99445386 14.00810798 85.99644712 10.63036537 86.01167297 C6.96031887 86.02714222 3.29112237 86.01780478 -0.37890625 86.00241089 C-1.43476451 86.01269801 -2.49062276 86.02298514 -3.57847673 86.033584 C-15.19049535 85.92633116 -25.48259866 81.84296925 -34.03056335 73.91809082 C-43.75164331 63.40547255 -45.90177897 51.20245916 -45.6282196 37.44543457 C-45.36176433 31.55677295 -44.12532423 26.70570313 -41.3157196 21.50793457 C-40.9032196 20.72418457 -40.4907196 19.94043457 -40.0657196 19.13293457 C-34.32736093 9.48205861 -26.38131464 4.38042703 -15.77769697 1.30261326 C-10.48293411 0.0872283 -5.41337166 -0.04538756 0 0 Z " fill="#0F1011" transform="translate(384.3157196044922,828.4920654296875)"/>
<path d="M0 0 C0.88879852 -0.00426498 1.77759705 -0.00852997 2.69332886 -0.01292419 C3.66586609 -0.01247101 4.63840332 -0.01201782 5.64041138 -0.0115509 C7.17983902 -0.01658882 7.17983902 -0.01658882 8.75036621 -0.02172852 C12.15138959 -0.03124666 15.55236378 -0.03318208 18.95339966 -0.03425598 C21.31368022 -0.037468 23.67396058 -0.04083203 26.03424072 -0.04434204 C30.98565126 -0.0503355 35.93704434 -0.05218172 40.88845825 -0.05158997 C47.23616507 -0.05148834 53.58376005 -0.06514003 59.93144035 -0.08236217 C64.80758174 -0.09347549 69.68369603 -0.09550938 74.55984879 -0.09498024 C76.90023306 -0.09616138 79.24061801 -0.10059066 81.58098984 -0.10831261 C84.85348108 -0.11809869 88.1257288 -0.11523977 91.39822388 -0.10920715 C92.36671265 -0.11482666 93.33520142 -0.12044617 94.33303833 -0.12623596 C102.96973751 -0.08573396 102.96973751 -0.08573396 106.64871216 2.13371277 C110.00504195 5.57826004 110.02719578 8.32882727 110.03639221 13.03494263 C110.04177775 13.7290364 110.04716329 14.42313017 110.05271202 15.13825709 C110.06701769 17.46366429 110.05988174 19.78850433 110.05276489 22.11393738 C110.05846712 23.78127501 110.06543081 25.44860873 110.07356262 27.11593628 C110.09152565 31.64487248 110.09031974 36.17361526 110.08462024 40.7025764 C110.08153287 44.48250432 110.08761581 48.26239485 110.09365898 52.04231745 C110.10771298 60.95912596 110.10613571 69.87583868 110.09475708 78.79264832 C110.08327511 87.99380932 110.09735084 97.19467889 110.12415355 106.39580148 C110.14630006 114.29400498 110.1529503 122.19211691 110.14707714 130.09034926 C110.14370383 134.80830936 110.14614743 139.52608263 110.16332817 144.24401665 C110.17877852 148.68052839 110.17486317 153.11660794 110.15602303 157.55310249 C110.1523318 159.18130027 110.15546115 160.80952993 110.16590881 162.43769836 C110.17908488 164.66079865 110.16760338 166.88246099 110.1499176 169.10549927 C110.14960368 170.9712506 110.14960368 170.9712506 110.14928341 172.87469387 C109.55657333 176.73359176 108.36286255 178.38123947 105.64871216 181.13371277 C103.28788883 182.31412443 101.86116943 182.26699438 99.2278595 182.28088379 C98.29836487 182.28803909 97.36887024 182.2951944 96.41120911 182.30256653 C95.38832291 182.30525543 94.36543671 182.30794434 93.31155396 182.31071472 C91.69919357 182.32057152 91.69919357 182.32057152 90.05426025 182.33062744 C86.48548316 182.35039123 82.91674819 182.36202939 79.34793091 182.37199402 C77.52312163 182.37810731 77.52312163 182.37810731 75.66144753 182.3843441 C69.22369175 182.40521712 62.78595737 182.41951401 56.34817505 182.42887878 C49.68980592 182.43894323 43.03181653 182.47435703 36.37355328 182.51405048 C31.26150377 182.54016132 26.14953442 182.54856568 21.03742409 182.55216026 C18.58258624 182.55703984 16.1277523 182.56869254 13.67297935 182.58719826 C10.23973324 182.61147317 6.80735911 182.61064566 3.37405396 182.60368347 C2.35724045 182.61649353 1.34042694 182.62930359 0.2928009 182.64250183 C-4.01164445 182.61063537 -6.62632372 182.55730564 -10.3966217 180.3543396 C-14.13219183 176.11049095 -14.60238113 173.06659157 -14.61198425 167.42230225 C-14.6158098 166.74862624 -14.61963535 166.07495023 -14.62357682 165.38085979 C-14.63389137 163.12465122 -14.62991769 160.86869786 -14.62594604 158.61247253 C-14.63029337 156.99439763 -14.63547659 155.37632478 -14.64143372 153.758255 C-14.65483256 149.36364503 -14.65540141 144.96912102 -14.65287042 140.5744946 C-14.65180133 136.90641363 -14.65668247 133.2383501 -14.66147584 129.57027286 C-14.67257404 120.91717123 -14.67300664 112.264113 -14.66696167 103.61100769 C-14.66092029 94.68255304 -14.67323634 85.75425591 -14.69453174 76.82582814 C-14.71214105 69.16117903 -14.71815017 61.4965801 -14.714894 53.8319115 C-14.71307996 49.2537072 -14.7157293 44.67561527 -14.72960854 40.09742928 C-14.74217142 35.79230825 -14.74025745 31.48743301 -14.72719765 27.18231583 C-14.72482897 25.60249308 -14.72757699 24.02265312 -14.73582077 22.44285011 C-14.74626567 20.28564972 -14.73820664 18.12927748 -14.72550964 15.97210693 C-14.72567739 14.76514443 -14.72584513 13.55818193 -14.72601795 12.31464481 C-14.20768284 7.91470812 -12.66221688 5.28077567 -9.35128784 2.38371277 C-6.20128686 0.41496215 -3.62801899 0.00787135 0 0 Z " fill="#D11715" transform="translate(323.3512878417969,164.8662872314453)"/>
<path d="M0 0 C1.09944366 -0.00596161 1.09944366 -0.00596161 2.2210983 -0.01204365 C4.67789995 -0.02167068 7.13412634 -0.00984651 9.59091187 0.00190735 C11.3517834 -0.00052044 13.11265355 -0.00423964 14.8735199 -0.00915527 C19.65639612 -0.01856823 24.43906786 -0.00913617 29.22192812 0.00417686 C34.22182533 0.01548132 39.22171233 0.01138472 44.22161865 0.00942993 C52.61639758 0.0085468 61.01109578 0.01963269 69.40585327 0.03804016 C79.12163901 0.05922184 88.83730657 0.06271485 98.55311072 0.0564782 C107.88953252 0.0507912 117.22591256 0.05642147 126.56232834 0.06765175 C130.54077295 0.07230514 134.5191921 0.07316841 138.4976387 0.0710659 C143.17781122 0.06918751 147.8578628 0.07725215 152.53800774 0.0931263 C154.25937716 0.09738218 155.98075882 0.098211 157.70213127 0.0954361 C160.04414963 0.09223243 162.38580245 0.10124965 164.7277832 0.11352539 C166.69723624 0.1166047 166.69723624 0.1166047 168.70647621 0.11974621 C171.73690796 0.3742218 171.73690796 0.3742218 173.73690796 2.3742218 C173.98300362 4.36946297 173.98300362 4.36946297 173.97741699 6.86668396 C173.98154948 8.28143352 173.98154948 8.28143352 173.98576546 9.72476387 C173.97497113 11.28785443 173.97497113 11.28785443 173.96395874 12.88252258 C173.96419981 13.99292845 173.96444088 15.10333431 173.96468925 16.24738884 C173.96319211 19.85485114 173.94794087 23.4621088 173.93222046 27.0695343 C173.92928127 29.29145712 173.92724007 31.51338131 173.92611694 33.73530579 C173.91561519 41.98996553 173.88769297 50.24459565 173.86190796 58.4992218 C173.82065796 76.9379718 173.77940796 95.3767218 173.73690796 114.3742218 C112.68690796 114.3742218 51.63690796 114.3742218 -11.26309204 114.3742218 C-11.34559204 96.1210968 -11.42809204 77.8679718 -11.51309204 59.0617218 C-11.54950806 53.29405334 -11.58592407 47.52638489 -11.6234436 41.5839386 C-11.64151001 34.55158997 -11.64151001 34.55158997 -11.64486694 31.26150513 C-11.65101728 28.95910555 -11.66510205 26.65671901 -11.68539429 24.35440063 C-11.71456857 20.87078906 -11.71871969 17.38796607 -11.7171936 13.9042511 C-11.73158604 12.87515719 -11.74597847 11.84606329 -11.76080704 10.78578472 C-11.75529705 9.84963738 -11.74978706 8.91349005 -11.74411011 7.94897461 C-11.74779728 7.13318782 -11.75148445 6.31740103 -11.75528336 5.47689342 C-11.26309204 3.3742218 -11.26309204 3.3742218 -9.68697166 1.61168861 C-6.34924522 -0.09232575 -3.74470196 -0.00047814 0 0 Z " fill="#D21715" transform="translate(499.2630920410156,200.6257781982422)"/>
<path d="M0 0 C56.76 0 113.52 0 172 0 C172 39.93 172 79.86 172 121 C114.91 121 57.82 121 -1 121 C-0.67 81.07 -0.34 41.14 0 0 Z " fill="#CF1614" transform="translate(390,406)"/>
<path d="M0 0 C2.64 0 5.28 0 8 0 C7.75113037 1.10867432 7.50226074 2.21734863 7.24584961 3.35961914 C5.55502442 10.91639524 3.88426585 18.4752632 2.31640625 26.05859375 C-2.59509792 49.68205224 -8.48156324 73.01641735 -14.52178955 96.37353516 C-17.3864219 107.46340536 -20.16901383 118.57330132 -22.9375 129.6875 C-23.39931373 131.53988103 -23.8611461 133.39225741 -24.32299805 135.24462891 C-24.97487363 137.85970478 -25.62658866 140.47482018 -26.27781677 143.09005737 C-27.41332614 147.64983675 -28.55287892 152.2085529 -29.69921875 156.765625 C-31.94520492 165.69815195 -34.1589108 174.63741133 -36.32421875 183.58984375 C-36.52893799 184.43536301 -36.73365723 185.28088226 -36.94458008 186.15202332 C-37.97242457 190.39799638 -38.9975698 194.64458879 -40.01806641 198.89233398 C-40.3934677 200.44647284 -40.7689521 202.00059162 -41.14453125 203.5546875 C-41.31715988 204.27740341 -41.48978851 205.00011932 -41.66764832 205.74473572 C-42.88658555 210.7731711 -42.88658555 210.7731711 -44 213 C-85.58 213 -127.16 213 -170 213 C-170 207.39 -170 201.78 -170 196 C-168.82493896 195.98541748 -167.64987793 195.97083496 -166.43920898 195.95581055 C-162.05739728 195.89760489 -157.67608752 195.82037392 -153.29467773 195.73754883 C-151.40250833 195.70440393 -149.51024254 195.67633983 -147.61791992 195.65356445 C-144.88939546 195.61982579 -142.161746 195.56750135 -139.43359375 195.51171875 C-138.17536049 195.50213387 -138.17536049 195.50213387 -136.89170837 195.49235535 C-130.17246461 195.32616573 -125.39694141 194.07734923 -120.1875 189.5625 C-117.05358335 184.95941788 -117.05358335 184.95941788 -116 174 C-100.655 173.505 -100.655 173.505 -85 173 C-83.09805318 168.24513295 -82.37901805 165.96785561 -83 161 C-84.64872195 158.35662654 -85.32449598 157.42174613 -88 156 C-92.59785042 155.23006704 -97.15832861 155.20916971 -101.8125 155.1875 C-103.07771484 155.16236328 -104.34292969 155.13722656 -105.64648438 155.11132812 C-108.76398889 155.05250729 -111.88202828 155.02337947 -115 155 C-115 147.08 -115 139.16 -115 131 C-112.94136719 130.90203125 -110.88273438 130.8040625 -108.76171875 130.703125 C-106.76595516 130.59186292 -104.77019653 130.48046603 -102.7746582 130.36523438 C-101.38895146 130.28872793 -100.00285251 130.21900806 -98.61645508 130.15625 C-96.62230707 130.06479499 -94.62943224 129.94679776 -92.63671875 129.828125 C-91.43748779 129.7652832 -90.23825684 129.70244141 -89.00268555 129.63769531 C-85.9439299 129.2637048 -85.9439299 129.2637048 -84.11645508 127.19433594 C-82.44151485 123.9023257 -82.00094997 120.52953858 -83 117 C-85.5831705 113.85351481 -87.09845882 112.18945481 -91.13793945 111.34057617 C-92.28480225 111.32486572 -93.43166504 111.30915527 -94.61328125 111.29296875 C-95.86044922 111.26396484 -97.10761719 111.23496094 -98.39257812 111.20507812 C-99.68615234 111.19927734 -100.97972656 111.19347656 -102.3125 111.1875 C-103.62541016 111.16236328 -104.93832031 111.13722656 -106.29101562 111.11132812 C-109.52702167 111.05249165 -112.76354354 111.02337559 -116 111 C-116 102.75 -116 94.5 -116 86 C-114.03675781 85.98582031 -112.07351563 85.97164063 -110.05078125 85.95703125 C-107.47133061 85.91013215 -104.89190424 85.86188476 -102.3125 85.8125 C-101.01892578 85.80669922 -99.72535156 85.80089844 -98.39257812 85.79492188 C-97.14541016 85.76591797 -95.89824219 85.73691406 -94.61328125 85.70703125 C-92.89298706 85.68346558 -92.89298706 85.68346558 -91.13793945 85.65942383 C-87.09845882 84.81054519 -85.5831705 83.14648519 -83 80 C-81.95921451 76.32301443 -82.49453159 72.93872704 -84.3125 69.5625 C-87.47560362 66.63370035 -90.86872241 66.82399484 -94.98046875 66.68359375 C-96.14384766 66.64169922 -97.30722656 66.59980469 -98.50585938 66.55664062 C-99.72080078 66.51732422 -100.93574219 66.47800781 -102.1875 66.4375 C-103.41404297 66.39431641 -104.64058594 66.35113281 -105.90429688 66.30664062 C-108.93608381 66.2004691 -111.96795315 66.09842048 -115 66 C-115.05607422 64.60587891 -115.05607422 64.60587891 -115.11328125 63.18359375 C-115.70389252 51.79736781 -115.70389252 51.79736781 -121.3125 42.1875 C-126.79464861 37.72528601 -132.57243032 37.67850647 -139.3359375 37.5859375 C-140.65496567 37.55688828 -140.65496567 37.55688828 -142.00064087 37.5272522 C-144.79199718 37.46777185 -147.58339543 37.4211979 -150.375 37.375 C-152.27475694 37.33679115 -154.1744971 37.29773774 -156.07421875 37.2578125 C-160.71605538 37.16051636 -165.35772678 37.08069825 -170 37 C-170 29.08 -170 21.16 -170 13 C-168.06338501 12.99635437 -166.12677002 12.99270874 -164.13146973 12.98895264 C-145.885839 12.95202073 -127.64037575 12.89450438 -109.39487457 12.81609726 C-100.01454894 12.77631426 -90.63430711 12.74391801 -81.25390625 12.72900391 C-73.07645771 12.71598356 -64.89919362 12.68900912 -56.72184896 12.64538693 C-52.39331306 12.6227807 -48.06500459 12.60708881 -43.73640442 12.60811615 C-39.65855427 12.60886326 -35.58120671 12.59089227 -31.50348663 12.55883217 C-30.01041711 12.55034373 -28.51729114 12.54857609 -27.02420807 12.55419731 C-14.73203625 12.69116972 -14.73203625 12.69116972 -4.45816803 6.48211288 C-2.69351203 4.45011005 -1.2049986 2.4099972 0 0 Z " fill="#D11715" transform="translate(697,350)"/>
<path d="M0 0 C1.65 0 3.3 0 5 0 C5.14695312 0.54527344 5.29390625 1.09054687 5.4453125 1.65234375 C8.07821447 10.50434174 11.93027673 17.41750943 20.0703125 22.125 C23.60451461 23.72755318 26.83527084 24.12765486 30.69500732 24.15821838 C32.10421196 24.17290161 32.10421196 24.17290161 33.54188538 24.18788147 C34.56543625 24.19363693 35.58898712 24.1993924 36.64355469 24.20532227 C38.26840034 24.22017166 38.26840034 24.22017166 39.92607117 24.23532104 C43.50798351 24.26691875 47.08990912 24.29168677 50.671875 24.31640625 C53.15480902 24.33697726 55.63773954 24.35797377 58.1206665 24.37937927 C63.98893543 24.42894155 69.8572252 24.47421084 75.72554421 24.51740164 C83.06315993 24.57166941 90.40071664 24.6326002 97.73828125 24.69335938 C110.82548317 24.8009223 123.91272397 24.90186752 137 25 C137 32.59 137 40.18 137 48 C132.91625 48.03867187 132.91625 48.03867187 128.75 48.078125 C126.09218323 48.11661704 123.43455579 48.16175405 120.77685547 48.20751953 C118.94003447 48.23561931 117.10309503 48.25688818 115.26611328 48.27099609 C112.61429686 48.29257897 109.96388815 48.33930499 107.3125 48.390625 C106.50071289 48.39185364 105.68892578 48.39308228 104.85253906 48.39434814 C99.16129761 48.53818657 94.76113979 49.80979333 90 53 C85.5939872 57.78487378 85.35882311 62.17208271 85.25 68.375 C85.20552734 69.62216797 85.20552734 69.62216797 85.16015625 70.89453125 C85.08999601 72.92917827 85.04267105 74.96459091 85 77 C84.19780029 77.02505615 83.39560059 77.0501123 82.5690918 77.07592773 C78.94172926 77.19182043 75.31463083 77.31457751 71.6875 77.4375 C70.42486328 77.47681641 69.16222656 77.51613281 67.86132812 77.55664062 C66.65283203 77.59853516 65.44433594 77.64042969 64.19921875 77.68359375 C63.08377686 77.72025146 61.96833496 77.75690918 60.8190918 77.79467773 C57.92126429 77.88931209 57.92126429 77.88931209 55 79 C54.04392561 81.86822318 53.77307293 83.94244746 53.6875 86.9375 C53.65011719 87.79214844 53.61273438 88.64679688 53.57421875 89.52734375 C54.1537546 92.89290517 55.34610954 93.88811089 58 96 C60.98687874 96.63914976 60.98687874 96.63914976 64.296875 96.609375 C65.50214844 96.64160156 66.70742188 96.67382812 67.94921875 96.70703125 C69.20347656 96.72121094 70.45773437 96.73539062 71.75 96.75 C73.01972656 96.77964844 74.28945313 96.80929687 75.59765625 96.83984375 C78.73142836 96.91053034 81.8657185 96.95753006 85 97 C85 105.25 85 113.5 85 122 C83.09734375 122.02578125 81.1946875 122.0515625 79.234375 122.078125 C76.73956017 122.13439902 74.24476939 122.1917465 71.75 122.25 C69.86861328 122.27126953 69.86861328 122.27126953 67.94921875 122.29296875 C66.74394531 122.32519531 65.53867187 122.35742188 64.296875 122.390625 C63.18666992 122.41157227 62.07646484 122.43251953 60.93261719 122.45410156 C57.36152016 123.11885123 56.17852911 124.13851421 54 127 C53.02227965 131.13650918 52.39340755 134.98351887 54 139 C57.74414886 140.91780674 61.00623274 141.29082461 65.17578125 141.4140625 C66.91118164 141.47207031 66.91118164 141.47207031 68.68164062 141.53125 C69.87982422 141.5621875 71.07800781 141.593125 72.3125 141.625 C74.1387793 141.68300781 74.1387793 141.68300781 76.00195312 141.7421875 C79.00105742 141.83627705 82.00050771 141.91921991 85 142 C85 149.92 85 157.84 85 166 C82.14601563 166.03867187 82.14601563 166.03867187 79.234375 166.078125 C76.73956017 166.13439902 74.24476939 166.1917465 71.75 166.25 C70.49574219 166.26417969 69.24148438 166.27835938 67.94921875 166.29296875 C66.74394531 166.32519531 65.53867187 166.35742188 64.296875 166.390625 C63.18666992 166.41157227 62.07646484 166.43251953 60.93261719 166.45410156 C57.38728618 167.11405495 56.19544761 168.19407105 54 171 C53.33862266 173.17123577 53.33862266 173.17123577 53.4375 175.4375 C53.41558594 176.17871094 53.39367187 176.91992188 53.37109375 177.68359375 C54.08584171 180.31617473 55.04999695 182.13343197 57.07202148 183.99389648 C61.6412437 186.37831649 67.28186928 185.78814514 72.3125 185.8125 C73.53001953 185.83763672 74.74753906 185.86277344 76.00195312 185.88867188 C79.00162687 185.94748901 81.99984298 185.98381039 85 186 C85.1861084 187.13018555 85.1861084 187.13018555 85.37597656 188.28320312 C85.54581055 189.27255859 85.71564453 190.26191406 85.890625 191.28125 C86.05594727 192.26158203 86.22126953 193.24191406 86.39160156 194.25195312 C87.20343066 197.91886656 88.49154879 200.21283199 91 203 C96.07161767 206.20591298 100.27292479 206.45348937 106.08203125 206.4765625 C106.93681564 206.49214203 107.79160004 206.50772156 108.67228699 206.52377319 C111.38568298 206.5710776 114.09882345 206.59900186 116.8125 206.625 C119.5438516 206.66147241 122.27505764 206.70200974 125.00627136 206.74765015 C126.7022395 206.77491745 128.39831509 206.79625102 130.09443665 206.81118774 C135.88929413 206.88929413 135.88929413 206.88929413 137 208 C137.07319621 210.69654854 137.09242537 213.36691458 137.0625 216.0625 C137.05798828 216.82111328 137.05347656 217.57972656 137.04882812 218.36132812 C137.0370068 220.24091871 137.01907078 222.12046899 137 224 C128.84547279 224.09317588 120.69117249 224.16400367 112.53624249 224.20724869 C108.74849672 224.22801684 104.96111837 224.25613353 101.17358398 224.30175781 C97.51011927 224.34560532 93.84700523 224.36921783 90.18329811 224.37950897 C88.79399924 224.38683135 87.40471693 224.40112787 86.01556969 224.42292023 C73.58768452 224.60991541 63.33410233 222.60395056 54 214 C47.95436991 207.91787717 44.24143847 202.13438764 42.42529297 193.63549805 C42.15390503 192.38526855 41.88251709 191.13503906 41.60290527 189.84692383 C41.31585297 188.48521965 41.02895135 187.1234837 40.7421875 185.76171875 C40.43566395 184.33578094 40.12839697 182.91000276 39.82043457 181.484375 C39.16849595 178.45925912 38.52154484 175.43313765 37.87860107 172.40609741 C36.86845436 167.65081643 35.8465851 162.89810268 34.82275391 158.14575195 C33.47558277 151.88836579 32.1323223 145.63015781 30.79296875 139.37109375 C28.67431114 129.47205256 26.5400321 119.57651173 24.375 109.6875 C24.20766357 108.92216949 24.04032715 108.15683899 23.86791992 107.36831665 C19.20287469 86.07637868 14.18883689 64.86297271 9.24150085 43.63534546 C7.18667601 34.81359151 5.14182219 25.98968196 3.13531494 17.15679932 C2.70164347 15.24969698 2.26469509 13.34334072 1.82763672 11.43701172 C1.57900879 10.33760254 1.33038086 9.23819336 1.07421875 8.10546875 C0.86369873 7.17887451 0.65317871 6.25228027 0.4362793 5.29760742 C0 3 0 3 0 0 Z " fill="#D11715" transform="translate(286,339)"/>
<path d="M0 0 C11.10065977 9.00972386 20.6025576 21.01938421 22.72265625 35.57421875 C24.12765127 53.07279314 20.96742123 68.64560263 9.6875 82.5 C0.12237633 92.73489163 -13.58370353 99.39277754 -27.58959961 100.4387207 C-30.22949728 100.5169859 -32.85912208 100.52318254 -35.5 100.5 C-36.81581055 100.51160156 -36.81581055 100.51160156 -38.15820312 100.5234375 C-47.63290504 100.49550912 -55.84115954 98.91284803 -64.25 94.5 C-64.94488525 94.1393042 -65.63977051 93.7786084 -66.35571289 93.40698242 C-78.6951358 86.8472443 -87.11536159 76.21029416 -91.35546875 62.79296875 C-91.58878906 61.95378906 -91.82210937 61.11460937 -92.0625 60.25 C-92.28550781 59.50363281 -92.50851562 58.75726562 -92.73828125 57.98828125 C-96.55124869 43.54050666 -93.40946186 29.07247146 -86.07421875 16.32421875 C-77.71428575 3.54894249 -66.6581557 -4.40541368 -52.0625 -8.75 C-34.01027358 -12.08106559 -15.43249681 -10.53091322 0 0 Z " fill="#C91A17" transform="translate(649.0625,711.75)"/>
<path d="M0 0 C8.58 0 17.16 0 26 0 C26 13.86 26 27.72 26 42 C39.86 42 53.72 42 68 42 C68 28.14 68 14.28 68 0 C76.91 0 85.82 0 95 0 C95 35.64 95 71.28 95 108 C86.42 108 77.84 108 69 108 C69 93.81 69 79.62 69 65 C54.81 65 40.62 65 26 65 C26 79.19 26 93.38 26 108 C17.42 108 8.84 108 0 108 C0 72.36 0 36.72 0 0 Z " fill="#C91917" transform="translate(448,703)"/>
<path d="M0 0 C8.848125 -0.0825 17.69625 -0.165 26.8125 -0.25 C30.96936401 -0.30462402 30.96936401 -0.30462402 35.21020508 -0.36035156 C37.43830595 -0.37204804 39.66641546 -0.38223759 41.89453125 -0.390625 C43.59144104 -0.4213208 43.59144104 -0.4213208 45.32263184 -0.45263672 C56.75107949 -0.45759 65.91534045 2.6573721 74.5625 10.25 C81.98144835 18.62009557 85.42933071 27.47860219 85.2109375 38.76953125 C84.25115512 48.91834124 80.15533539 57.3817943 72.6875 64.3125 C62.44514773 72.43884983 50.53398149 73.31249949 37.9375 73.125 C32.0284375 73.063125 32.0284375 73.063125 26 73 C26 83.89 26 94.78 26 106 C17.42 106 8.84 106 0 106 C0 71.02 0 36.04 0 0 Z " fill="#C91917" transform="translate(685,704)"/>
<path d="M0 0 C24.75 0 49.5 0 75 0 C75 7.59 75 15.18 75 23 C59.16 23 43.32 23 27 23 C27 29.27 27 35.54 27 42 C41.19 42 55.38 42 70 42 C70 48.93 70 55.86 70 63 C55.81 63 41.62 63 27 63 C27 69.93 27 76.86 27 84 C43.17 84 59.34 84 76 84 C76 91.59 76 99.18 76 107 C66.238486 107.02255193 56.47698917 107.04091561 46.71545506 107.05181217 C42.18325906 107.05704078 37.65108173 107.06413801 33.11889648 107.07543945 C28.7487717 107.08626914 24.37866492 107.09227701 20.00852776 107.09487724 C18.33749037 107.09673135 16.66645403 107.10035168 14.99542427 107.10573006 C12.66302449 107.11294159 10.33070007 107.1139909 7.99829102 107.11352539 C7.3005809 107.11712067 6.60287079 107.12071594 5.88401794 107.12442017 C1.11405216 107.11405216 1.11405216 107.11405216 0 106 C-0.0953919 104.62123975 -0.12188622 103.23763084 -0.12025452 101.85557556 C-0.12162918 100.96230057 -0.12300385 100.06902557 -0.12442017 99.14868164 C-0.12082489 98.16109863 -0.11722961 97.17351562 -0.11352539 96.15600586 C-0.11367142 95.12198135 -0.11381744 94.08795685 -0.1139679 93.02259827 C-0.11326827 89.58665914 -0.10547358 86.15077347 -0.09765625 82.71484375 C-0.09579225 80.33972707 -0.09436826 77.96461 -0.09336853 75.5894928 C-0.08954197 69.32423856 -0.0797105 63.05900733 -0.06866455 56.79376221 C-0.05665953 49.28396836 -0.05204885 41.77416684 -0.04621124 34.26436615 C-0.03649882 22.84289474 -0.01734322 11.42147387 0 0 Z " fill="#C81A18" transform="translate(257,704)"/>
<path d="M0 0 C4.89665096 4.39244136 8.60016177 10.31880717 9.97265625 16.76953125 C9.97265625 19.40953125 9.97265625 22.04953125 9.97265625 24.76953125 C1.39265625 24.76953125 -7.18734375 24.76953125 -16.02734375 24.76953125 C-17.01734375 22.45953125 -18.00734375 20.14953125 -19.02734375 17.76953125 C-25.11906142 13.53821031 -31.9009398 14.02737321 -39.02734375 14.76953125 C-42.09895959 15.68286127 -42.80476674 16.29294544 -45.02734375 18.76953125 C-46.00937059 22.20662519 -46.48433324 24.48831014 -45.27026367 27.89208984 C-43.73249364 30.21490493 -42.79108401 30.55131975 -40.140625 31.30859375 C-39.33447754 31.54739258 -38.52833008 31.78619141 -37.69775391 32.03222656 C-36.37590088 32.39719238 -36.37590088 32.39719238 -35.02734375 32.76953125 C-34.10614746 33.03604492 -33.18495117 33.30255859 -32.23583984 33.57714844 C-30.26236607 34.14628624 -28.28720458 34.70959882 -26.31054688 35.26757812 C4.33002176 43.94746161 4.33002176 43.94746161 11.47265625 55.20703125 C14.77324203 62.76596207 14.15088929 73.56689325 11.47265625 81.20703125 C6.64331633 91.18431337 -0.78997681 96.8665351 -11.02734375 100.76953125 C-24.58578392 104.96241764 -42.09017234 104.90566394 -55.02734375 98.76953125 C-64.12222108 93.96599635 -69.5271607 87.87567473 -73.36328125 78.39453125 C-74.02734375 75.76953125 -74.02734375 75.76953125 -74.02734375 68.76953125 C-65.44734375 68.76953125 -56.86734375 68.76953125 -48.02734375 68.76953125 C-47.03734375 70.74953125 -46.04734375 72.72953125 -45.02734375 74.76953125 C-39.24946738 80.11406689 -34.19415303 80.18044096 -26.56640625 80.109375 C-21.73420614 79.64535578 -18.27944667 78.45586383 -15.02734375 74.76953125 C-13.45380233 71.34169821 -13.45380233 71.34169821 -14.02734375 67.76953125 C-16.45034241 64.21579988 -18.8779573 62.65926474 -22.87890625 61.3984375 C-23.67441895 61.14368652 -24.46993164 60.88893555 -25.28955078 60.62646484 C-26.19302246 60.34367676 -27.09649414 60.06088867 -28.02734375 59.76953125 C-32.53152799 58.34481748 -37.0302965 56.90410091 -41.52734375 55.45703125 C-43.28498047 54.90885742 -43.28498047 54.90885742 -45.078125 54.34960938 C-55.53729547 50.95125937 -64.48499932 46.6893884 -70.02734375 36.76953125 C-71.13647272 34.1119082 -71.68439972 31.62388076 -72.02734375 28.76953125 C-72.12144531 28.02058594 -72.21554687 27.27164063 -72.3125 26.5 C-72.83830816 18.15448076 -70.35227061 9.75817925 -64.97265625 3.3046875 C-48.19173117 -12.28589514 -18.45245292 -13.22816498 0 0 Z " fill="#C91917" transform="translate(420.02734375,710.23046875)"/>
<path d="M0 0 C9.07860282 6.60509128 15.50091214 16.0967758 17.296875 27.2734375 C18.50278438 40.07115077 16.00913512 50.74085839 8.19140625 61.02734375 C1.32331088 69.16993105 -7.33422796 75.10758708 -18.10058594 76.60742188 C-31.60419233 77.74270386 -42.48713828 75.96937451 -53.078125 67.0234375 C-62.01303637 58.30330765 -67.66296804 47.81546135 -68.078125 35.0234375 C-66.67807584 21.02294585 -62.04122797 11.05460563 -51.703125 1.2734375 C-37.07804465 -10.62011033 -15.28338814 -9.76193289 0 0 Z " fill="#111212" transform="translate(421.703125,604.7265625)"/>
<path d="M0 0 C8.29851604 6.63881283 12.90567196 12.56533349 14.19140625 23.4609375 C14.54047888 32.94220067 12.32851879 42.08521265 6.42578125 49.6875 C-1.49370489 57.35770449 -10.93433531 59.73580957 -21.640625 59.56640625 C-29.36343079 58.87747754 -35.80945705 55.87249945 -41.1875 50.25 C-48.0189539 40.59400266 -50.69264963 31.40404638 -48.7578125 19.63671875 C-46.35817633 10.11223693 -40.61047368 3.44402269 -32.30078125 -1.59765625 C-21.95948604 -7.23662499 -10.06269111 -5.52461473 0 0 Z " fill="#FEFCFC" transform="translate(631.1875,729.75)"/>
<path d="M0 0 C8.476875 -0.0928125 8.476875 -0.0928125 17.125 -0.1875 C18.89762207 -0.21481201 20.67024414 -0.24212402 22.49658203 -0.27026367 C23.91698528 -0.27903354 25.33739612 -0.2866763 26.7578125 -0.29296875 C27.48282959 -0.30831665 28.20784668 -0.32366455 28.95483398 -0.33947754 C35.28094708 -0.34270844 39.13031923 1.33806154 43.8125 5.5 C46.46617626 8.53277287 46.93614786 10.32316733 47.3125 14.3125 C46.94315446 18.67077738 45.64345816 20.57905414 43 24 C42.34 24.99 41.68 25.98 41 27 C41.94875 27.763125 42.8975 28.52625 43.875 29.3125 C46.88760656 31.73568354 48.83900581 33.70268634 49.3359375 37.70703125 C49.46904882 48.28938098 49.46904882 48.28938098 45 53 C39.44382727 57.02822523 34.42124858 57.14285707 27.734375 57.09765625 C27.03070801 57.09664917 26.32704102 57.09564209 25.60205078 57.09460449 C22.98468384 57.08939005 20.36734021 57.07542881 17.75 57.0625 C11.8925 57.041875 6.035 57.02125 0 57 C0 38.19 0 19.38 0 0 Z " fill="#F8F8F8" transform="translate(594,843)"/>
<path d="M0 0 C13.86 0 27.72 0 42 0 C42 3.96 42 7.92 42 12 C32.76 12 23.52 12 14 12 C14 15.3 14 18.6 14 22 C22.25 22 30.5 22 39 22 C39 25.96 39 29.92 39 34 C30.75 34 22.5 34 14 34 C14 37.63 14 41.26 14 45 C23.57 45 33.14 45 43 45 C43 49.29 43 53.58 43 58 C28.81 58 14.62 58 0 58 C0 38.86 0 19.72 0 0 Z " fill="#F6F6F6" transform="translate(455,843)"/>
<path d="M0 0 C3.44109583 3.6011468 5.6875 7.64996113 5.6875 12.8125 C3.43915504 12.94776139 1.18847486 13.04460804 -1.0625 13.125 C-2.31546875 13.18300781 -3.5684375 13.24101563 -4.859375 13.30078125 C-8.3125 12.8125 -8.3125 12.8125 -10.578125 10.35546875 C-11.15046875 9.51628906 -11.7228125 8.67710937 -12.3125 7.8125 C-15.11407448 6.87864184 -16.96697803 6.64895405 -19.875 6.625 C-20.66003906 6.61082031 -21.44507813 6.59664062 -22.25390625 6.58203125 C-24.5368545 6.62082491 -24.5368545 6.62082491 -26.3125 8.8125 C-26.47937448 11.39604218 -26.47937448 11.39604218 -26.3125 13.8125 C-21.53489006 15.98917171 -17.00753346 17.4804734 -11.875 18.6875 C-4.6687575 20.51301047 1.26488256 22.40569423 5.6875 28.625 C7.40219484 34.09058981 7.20022995 38.13188518 5.5625 43.5 C2.16486445 49.50248947 -2.20367988 52.39400334 -8.69140625 54.30859375 C-16.89378966 55.88550502 -25.79942039 55.77337042 -33.3125 51.8125 C-36.1875 49.375 -36.1875 49.375 -38.3125 46.8125 C-38.89 46.19375 -39.4675 45.575 -40.0625 44.9375 C-41.79507763 41.99211803 -41.9889211 39.17772051 -42.3125 35.8125 C-40.04328464 35.67760609 -37.7717933 35.58056005 -35.5 35.5 C-33.60314453 35.41298828 -33.60314453 35.41298828 -31.66796875 35.32421875 C-30.56066406 35.48535156 -29.45335937 35.64648438 -28.3125 35.8125 C-26.5 38.25 -26.5 38.25 -25.3125 40.8125 C-21.10028586 43.33982849 -17.08200451 43.26673853 -12.3125 42.8125 C-9.6409596 41.30970824 -9.6409596 41.30970824 -8.3125 38.8125 C-8.67633626 36.20071578 -8.67633626 36.20071578 -9.3125 33.8125 C-10.12332031 33.57015625 -10.93414063 33.3278125 -11.76953125 33.078125 C-36.33339968 25.64319393 -36.33339968 25.64319393 -40.4375 18.98828125 C-42.3487902 14.23565339 -42.34959254 8.44623268 -40.47265625 3.6796875 C-36.89786461 -1.88109949 -31.67741888 -4.21541232 -25.5 -6 C-16.09396815 -6.55329599 -7.89200457 -5.21170113 0 0 Z " fill="#F6F6F6" transform="translate(563.3125,847.1875)"/>
<path d="M0 0 C5.23241977 4.08337659 7.3741662 8.04634065 8.77734375 14.4921875 C6.52899879 14.62744889 4.27831861 14.72429554 2.02734375 14.8046875 C0.774375 14.86269531 -0.47859375 14.92070313 -1.76953125 14.98046875 C-5.22265625 14.4921875 -5.22265625 14.4921875 -7.54296875 12.0546875 C-8.37441406 10.78625 -8.37441406 10.78625 -9.22265625 9.4921875 C-13.71073332 6.7201399 -19.11508925 6.82918601 -24.22265625 7.4921875 C-29.35166831 10.01006615 -31.90137581 13.0088118 -33.91015625 18.3046875 C-34.93315897 25.46570654 -34.35264166 30.48372485 -30.22265625 36.4921875 C-26.63290707 39.90682696 -23.9977747 41.31815628 -19.03515625 41.8046875 C-14.4921508 41.43231 -10.89765601 40.2294287 -7.22265625 37.4921875 C-6.56265625 36.1721875 -5.90265625 34.8521875 -5.22265625 33.4921875 C-0.60265625 33.4921875 4.01734375 33.4921875 8.77734375 33.4921875 C7.53213077 40.96346537 4.68499271 45.67147844 -1.51171875 50.14453125 C-9.62164171 54.82333296 -18.85559091 56.13070502 -28.015625 53.7734375 C-38.76885933 49.73894111 -43.86056154 42.67484437 -48.59765625 32.5546875 C-50.36742433 23.88282392 -49.5892087 16.24636028 -45.22265625 8.4921875 C-40.84413371 2.1738132 -35.07663177 -3.47052458 -27.37109375 -5.1171875 C-16.86457952 -6.42072525 -8.83854487 -5.99591972 0 0 Z " fill="#F7F7F7" transform="translate(422.22265625,847.5078125)"/>
<path d="M0 0 C1.42119141 0.63615234 1.42119141 0.63615234 2.87109375 1.28515625 C9.89862555 4.78430177 15.40663005 9.54009441 21 15 C18.17477391 19.67248931 15.32239956 22.65996398 11 26 C10.56171875 25.56429687 10.1234375 25.12859375 9.671875 24.6796875 C-1.39688051 14.28585611 -13.96914375 10.27161851 -28.890625 10.6875 C-38.86461528 11.24626696 -47.17320464 14.97320686 -55 21 C-55.74121094 21.55558594 -56.48242188 22.11117187 -57.24609375 22.68359375 C-58.11427734 23.33521484 -58.11427734 23.33521484 -59 24 C-62.98882376 22.46583702 -66.64783382 19.5752926 -69 16 C-68.98828125 14.078125 -68.98828125 14.078125 -68 12 C-50.94080899 -4.69493783 -21.75451388 -9.82165817 0 0 Z " fill="#0F0F0F" transform="translate(606,230)"/>
<path d="M0 0 C3.80215393 1.72825178 5.44673007 3.16522476 7 7 C7.26742554 9.11778259 7.26742554 9.11778259 7.29052734 11.41381836 C7.3096669 12.71052711 7.3096669 12.71052711 7.32919312 14.03343201 C7.33141876 14.95954788 7.33364441 15.88566376 7.3359375 16.83984375 C7.3425943 17.79895157 7.3492511 18.75805939 7.35610962 19.74623108 C7.36622551 21.77277714 7.37092697 23.79935645 7.37060547 25.82592773 C7.37497941 28.92292211 7.41131252 32.01849199 7.44921875 35.11523438 C7.45508699 37.08593263 7.45905634 39.05663765 7.4609375 41.02734375 C7.47530853 41.95143539 7.48967957 42.87552704 7.50448608 43.82762146 C7.4743725 48.07371026 7.37871616 50.38553291 5.10766602 54.0703125 C2.14891185 56.77921936 0.08065614 56.96996 -3.80859375 57.20703125 C-7.18197137 56.88833426 -8.79472563 55.48093367 -11 53 C-11.92134457 50.23596629 -12.15032924 48.4690298 -12.20874023 45.60791016 C-12.22803085 44.72334137 -12.24732147 43.83877258 -12.26719666 42.92739868 C-12.32502833 38.89239752 -12.37418501 34.85757052 -12.4050293 30.82226562 C-12.42664174 28.69417119 -12.46078266 26.56616641 -12.50756836 24.43847656 C-12.57446468 21.3674356 -12.60200796 18.29822857 -12.62109375 15.2265625 C-12.64892441 14.27746002 -12.67675507 13.32835754 -12.70542908 12.35049438 C-12.68543823 5.93158207 -12.68543823 5.93158207 -10.72976685 3.27362061 C-7.20841456 0.18909016 -4.60223603 -0.78335932 0 0 Z " fill="#100F0F" transform="translate(478,437)"/>
<path d="M0 0 C0.83402344 -0.03351563 1.66804688 -0.06703125 2.52734375 -0.1015625 C6.27621619 0.9728447 8.22330755 3.31225374 10.0625 6.625 C10.75532781 9.90777158 10.71760057 13.09638723 10.65625 16.44140625 C10.65629028 17.37548813 10.65633057 18.30957001 10.65637207 19.2719574 C10.65102803 21.23956052 10.6334932 23.2071639 10.60449219 25.17456055 C10.56258374 28.18149177 10.56343166 31.18618483 10.5703125 34.19335938 C10.55982089 36.10939052 10.54688294 38.02541016 10.53125 39.94140625 C10.53104858 40.83735001 10.53084717 41.73329376 10.53063965 42.65638733 C10.44019345 47.43764236 10.21988335 50.77914717 7.0625 54.625 C3.3251144 57.1165904 1.48918417 57.08293285 -2.9375 56.625 C-5.69079021 54.82937595 -7.46377461 53.57245078 -8.9375 50.625 C-9.04706812 49.16584115 -9.0965127 47.70192574 -9.11450195 46.23876953 C-9.12733719 45.33087677 -9.14017242 44.42298401 -9.15339661 43.48757935 C-9.16078354 42.50425629 -9.16817047 41.52093323 -9.17578125 40.5078125 C-9.183853 39.49911102 -9.19192474 38.49040955 -9.20024109 37.45114136 C-9.21408592 35.31428754 -9.22480629 33.17741156 -9.23266602 31.04052734 C-9.24989421 27.77008305 -9.29377897 24.50064547 -9.33789062 21.23046875 C-9.34801601 19.15625745 -9.35653259 17.08203754 -9.36328125 15.0078125 C-9.38078934 14.0285379 -9.39829742 13.04926331 -9.41633606 12.04031372 C-9.39464178 5.26116816 -9.39464178 5.26116816 -7.06103516 2.01367188 C-4.53459653 0.36152392 -3.00909468 0.02781906 0 0 Z " fill="#0D0E0F" transform="translate(427.9375,437.375)"/>
<path d="M0 0 C2.69990662 1.79993774 4.5418865 3.083773 6 6 C6.1145425 7.4536994 6.16936407 8.91234578 6.19287109 10.37036133 C6.21696548 11.72735893 6.21696548 11.72735893 6.24154663 13.11177063 C6.28598861 17.25102 6.32706103 21.39010887 6.35009766 25.52954102 C6.3666593 27.71291766 6.39395188 29.89624004 6.43212891 32.0793457 C6.48688444 35.2263605 6.50876989 38.3721043 6.5234375 41.51953125 C6.54610687 42.49364456 6.56877625 43.46775787 6.59213257 44.47138977 C6.57746225 49.17675304 6.54957423 51.28816574 3.59619141 55.11352539 C0.35767705 57.46673212 -1.19972564 57.74070761 -5.06640625 57.4921875 C-8.41987095 56.6385783 -9.98027505 54.6929666 -12 52 C-13.19994216 48.58138544 -13.10824204 45.29326079 -13.078125 41.6953125 C-13.06845703 40.45168945 -13.05878906 39.20806641 -13.04882812 37.92675781 C-13.03271484 36.63092773 -13.01660156 35.33509766 -13 34 C-12.98356445 32.12199707 -12.98356445 32.12199707 -12.96679688 30.20605469 C-12.92185487 26.42799568 -12.83974842 22.65223774 -12.75 18.875 C-12.73582031 17.58851563 -12.72164062 16.30203125 -12.70703125 14.9765625 C-12.67480469 13.74421875 -12.64257812 12.511875 -12.609375 11.2421875 C-12.58842773 10.1372998 -12.56748047 9.03241211 -12.54589844 7.89404297 C-11.8823972 4.37653686 -10.75634086 3.20881316 -8 1 C-5.14675563 -0.42662219 -3.16545451 -0.31033868 0 0 Z " fill="#0D0F0F" transform="translate(526,437)"/>
<path d="M0 0 C3.465 -0.0825 6.93 -0.165 10.5 -0.25 C12.11358398 -0.30462402 12.11358398 -0.30462402 13.75976562 -0.36035156 C19.97287466 -0.43142403 24.8974322 0.24259582 30 4 C33.1823917 8.37578859 33.73634726 12.7126176 33 18 C31.28007213 23.73309289 29.25067361 26.15588513 24 29 C21.05868109 29.98043964 19.17498335 30.11621202 16.11328125 30.09765625 C15.26805908 30.09515869 14.42283691 30.09266113 13.55200195 30.09008789 C12.48296631 30.08098389 11.41393066 30.07187988 10.3125 30.0625 C5.2078125 30.0315625 5.2078125 30.0315625 0 30 C0 20.1 0 10.2 0 0 Z " fill="#FDFAFA" transform="translate(711,726)"/>
<path d="M0 0 C5.67458978 1.92721917 9.32050871 5.64101742 12 11 C12.55713132 16.95701945 12.52180186 21.95208399 9 27 C4.97967021 31.0422988 1.43712092 33.13083687 -4.3125 33.25 C-8.58298167 33.1876066 -11.39481394 32.43140455 -15 30 C-19.89339974 24.69881694 -21.47365717 20.59745819 -21.31640625 13.46875 C-20.6851283 8.54322326 -17.96946378 5.85405143 -14.375 2.6875 C-9.68678983 -0.6435967 -5.63115856 -0.46854016 0 0 Z " fill="#F9F9F9" transform="translate(401,623)"/>
<path d="M0 0 C5.06508622 2.35232469 8.29696266 5.20330032 10.8359375 10.28125 C11.3597951 15.53700165 11.50099122 19.92651095 9.1484375 24.71875 C5.52772723 28.73088841 2.33200374 31.94080909 -3.25 32.484375 C-8.0861255 32.58340829 -11.3001287 32.50119483 -15.1640625 29.28125 C-20.28056575 23.83042977 -21.52265061 20.43842587 -21.4453125 13.04296875 C-20.92086895 7.89322444 -18.28361908 5.26752603 -14.5390625 1.96875 C-9.93625226 -1.3016678 -5.35643766 -1.77903345 0 0 Z " fill="#FAFAFA" transform="translate(608.1640625,623.71875)"/>
<path d="M0 0 C2.25 1.71875 2.25 1.71875 4.25 4.71875 C0.95 8.01875 -2.35 11.31875 -5.75 14.71875 C-7.544375 13.295625 -7.544375 13.295625 -9.375 11.84375 C-15.32469294 7.44118489 -20.49448987 6.16957663 -27.86328125 6.25 C-32.11615801 6.94058892 -35.08838797 8.93651541 -38.55859375 11.40625 C-40.75 12.71875 -40.75 12.71875 -44.75 12.71875 C-46.671875 10.96875 -46.671875 10.96875 -48.5 8.71875 C-49.11359375 7.97625 -49.7271875 7.23375 -50.359375 6.46875 C-51.04773438 5.6025 -51.04773438 5.6025 -51.75 4.71875 C-49.57650986 -0.49537402 -45.60368756 -2.69888568 -40.75 -5.28125 C-25.89916736 -11.16471683 -13.04939317 -8.45244785 0 0 Z " fill="#0E0F0F" transform="translate(605.75,259.28125)"/>
<path d="M0 0 C8.25 0 16.5 0 25 0 C25 7.59 25 15.18 25 23 C16.75 23 8.5 23 0 23 C0 15.41 0 7.82 0 0 Z " fill="#D21714" transform="translate(441,364)"/>
<path d="M0 0 C7.59 0 15.18 0 23 0 C23 7.59 23 15.18 23 23 C15.41 23 7.82 23 0 23 C0 15.41 0 7.82 0 0 Z " fill="#D51715" transform="translate(485,364)"/>
<path d="M0 0 C7.92 0 15.84 0 24 0 C24 5.61 24 11.22 24 17 C16.08 17 8.16 17 0 17 C0 11.39 0 5.78 0 0 Z " fill="#D31714" transform="translate(441,546)"/>
<path d="M0 0 C1.23685547 0.00064453 2.47371094 0.00128906 3.74804688 0.00195312 C5.03646484 0.01806641 6.32488281 0.03417969 7.65234375 0.05078125 C8.94462891 0.04755859 10.23691406 0.04433594 11.56835938 0.04101562 C21.18925427 0.09622159 21.18925427 0.09622159 24.58984375 2.36328125 C25.52734375 5.23828125 25.52734375 5.23828125 25.58984375 8.36328125 C23.41261185 11.34231518 22.19561253 12.26423957 18.52124023 12.86499023 C16.75889038 12.86221069 16.75889038 12.86221069 14.9609375 12.859375 C13.03797852 12.8603418 13.03797852 12.8603418 11.07617188 12.86132812 C10.07952515 12.84573853 10.07952515 12.84573853 9.06274414 12.82983398 C7.0299345 12.80081823 4.99972558 12.80924191 2.96679688 12.82226562 C-6.85660639 12.75799575 -6.85660639 12.75799575 -9.28881836 11.02368164 C-11.06635225 8.39163112 -10.85911893 6.44188248 -10.41015625 3.36328125 C-7.1885092 0.06620618 -4.48393101 -0.0117973 0 0 Z " fill="#0C0F0F" transform="translate(364.41015625,170.63671875)"/>
<path d="M0 0 C4.14613048 1.79037453 6.20962547 3.85386952 8 8 C8.4898067 11.36742108 8.7490388 13.75992466 6.9453125 16.74609375 C4.60357788 19.63515688 2.78867813 21.78563975 -0.98828125 22.23828125 C-5.15410332 22.3713075 -7.37869331 22.38831668 -11 20.125 C-14.47902736 16.42853343 -14.38781166 13.40391772 -14.359375 8.484375 C-14 6 -14 6 -11.625 2.9375 C-7.49664944 -0.10961589 -5.16178257 -0.34995136 0 0 Z " fill="#0E0F0F" transform="translate(375,316)"/>
<path d="M0 0 C7.59 0 15.18 0 23 0 C23 5.61 23 11.22 23 17 C15.74 17 8.48 17 1 17 C-0.53190797 13.93618406 -0.10243613 10.73034134 -0.0625 7.375 C-0.041875 4.94125 -0.02125 2.5075 0 0 Z " fill="#D41714" transform="translate(484,546)"/>
<path d="M0 0 C23.73933957 -0.02336203 47.47867741 -0.04099543 71.21802616 -0.05181217 C82.24065091 -0.0569681 93.26326851 -0.06399742 104.28588867 -0.07543945 C113.89337574 -0.08540775 123.50085764 -0.09185855 133.10834974 -0.09408849 C138.19525158 -0.09539195 143.28213862 -0.09845475 148.36903572 -0.10573006 C153.15829001 -0.11252409 157.94752342 -0.11461006 162.73678207 -0.11310768 C164.49314296 -0.11338249 166.24950456 -0.11536752 168.00586128 -0.11920547 C170.40754325 -0.12419557 172.80914683 -0.12297871 175.21083069 -0.12025452 C175.90248434 -0.12316736 176.59413798 -0.1260802 177.30675083 -0.12908131 C181.64536864 -0.11582 185.73120719 0.30229369 190 1 C190 1.99 190 2.98 190 4 C189.34 4.66 188.68 5.32 188 6 C187.67 5.01 187.34 4.02 187 3 C125.29 3 63.58 3 0 3 C0 2.01 0 1.02 0 0 Z " fill="#4E4B4B" transform="translate(489,181)"/>
<path d="M0 0 C3.02508145 1.73602105 5.41790069 3.83580137 7 7 C7.37593152 11.98109259 7.1765161 15.05673864 4 19 C0.8054567 21.73817998 -0.73679083 22 -5 22 C-9.2366493 21.28721779 -11.30464847 19.34877008 -14 16 C-15.57455739 12.85088521 -15.34799118 10.47991184 -15 7 C-11.36615891 0.89840116 -7.02513109 -1.19909473 0 0 Z " fill="#100F0F" transform="translate(585,276)"/>
<path d="M0 0 C1.20269531 0.25265625 2.40539062 0.5053125 3.64453125 0.765625 C7.15015898 1.73962521 10.05184375 2.91153487 13.1875 4.75 C14.375 7.125 14.375 7.125 14.1875 9.75 C12.25 12.5625 12.25 12.5625 9.1875 14.75 C3.51159402 15.47074997 0.13641047 14.81361125 -4.8125 11.75 C-6.8125 9.75 -6.8125 9.75 -6.9375 7.125 C-6.89625 6.34125 -6.855 5.5575 -6.8125 4.75 C-8.1325 4.75 -9.4525 4.75 -10.8125 4.75 C-10.4825 3.1 -10.1525 1.45 -9.8125 -0.25 C-6.01275908 -1.51658031 -3.89818335 -0.84688967 0 0 Z " fill="#151516" transform="translate(541.8125,876.25)"/>
<path d="M0 0 C2.75059381 -0.08107646 5.49879021 -0.14052813 8.25 -0.1875 C9.02730469 -0.21263672 9.80460938 -0.23777344 10.60546875 -0.26367188 C14.09410857 -0.30839803 16.38791905 -0.3207494 19.51953125 1.3203125 C21 3 21 3 21.4375 6.0625 C21.293125 7.031875 21.14875 8.00125 21 9 C17.89914429 11.06723714 17.27068319 11.24497423 13.76953125 11.1953125 C12.56586914 11.18564453 12.56586914 11.18564453 11.33789062 11.17578125 C10.50451172 11.15902344 9.67113281 11.14226563 8.8125 11.125 C7.96751953 11.11597656 7.12253906 11.10695313 6.25195312 11.09765625 C4.16784757 11.07410703 2.08388783 11.03823647 0 11 C0 7.37 0 3.74 0 0 Z " fill="#101111" transform="translate(608,877)"/>
<path d="M0 0 C3.04605491 0.39614774 4.88658644 1.30694266 7.22265625 3.2890625 C9.31809431 6.28254545 9.42262955 8.68954309 9.22265625 12.2890625 C10.21265625 12.6190625 11.20265625 12.9490625 12.22265625 13.2890625 C12.22265625 13.9490625 12.22265625 14.6090625 12.22265625 15.2890625 C9.30296412 14.6973142 6.38752038 14.09127695 3.47265625 13.4765625 C2.64765625 13.31091797 1.82265625 13.14527344 0.97265625 12.97460938 C-6.91660416 11.28859808 -6.91660416 11.28859808 -9.77734375 8.2890625 C-10.21484375 5.7890625 -10.21484375 5.7890625 -9.77734375 3.2890625 C-6.94281155 -0.40201058 -4.38447863 -0.15684314 0 0 Z " fill="#141515" transform="translate(545.77734375,852.7109375)"/>
<path d="M0 0 C13.86 0 27.72 0 42 0 C42 1.32 42 2.64 42 4 C27.9907504 4.67067454 14.02603124 5.15938672 0 5 C0 3.35 0 1.7 0 0 Z " fill="#DC1715" transform="translate(560,336)"/>
<path d="M0 0 C2.4377963 -0.05397335 4.87439685 -0.09365616 7.3125 -0.125 C8.00279297 -0.14175781 8.69308594 -0.15851562 9.40429688 -0.17578125 C13.17135396 -0.21217794 14.78431704 -0.14378864 18 2 C18.3125 5 18.3125 5 18 8 C16 10 16 10 12.3046875 10.1953125 C10.82799892 10.182009 9.35137642 10.15814835 7.875 10.125 C7.12089844 10.11597656 6.36679687 10.10695313 5.58984375 10.09765625 C3.72642746 10.0740687 1.86317407 10.03819719 0 10 C0 6.7 0 3.4 0 0 Z " fill="#121213" transform="translate(608,855)"/>
<path d="M0 0 C-3.63880308 2.49057306 -6.03236478 3.37208331 -10.43286133 3.34057617 C-11.49358353 3.34034958 -12.55430573 3.34012299 -13.64717102 3.33988953 C-14.7806749 3.32440567 -15.91417877 3.30892181 -17.08203125 3.29296875 C-18.25134689 3.28872391 -19.42066254 3.28447906 -20.62541199 3.28010559 C-24.354677 3.26333285 -28.08339872 3.22568192 -31.8125 3.1875 C-34.34309115 3.17245141 -36.87369077 3.15876331 -39.40429688 3.14648438 C-45.60304949 3.11343383 -51.80148592 3.0632477 -58 3 C-58 2.67 -58 2.34 -58 2 C-48.86439095 0.87486818 -39.76950226 0.84624821 -30.58178711 0.86962891 C-28.04339774 0.87504073 -25.50518125 0.86962782 -22.96679688 0.86328125 C-21.34374961 0.86394122 -19.72070246 0.86522069 -18.09765625 0.8671875 C-17.34347916 0.86516327 -16.58930206 0.86313904 -15.81227112 0.86105347 C-12.40431962 0.87629177 -9.25706529 0.92797361 -6 2 C-6 1.34 -6 0.68 -6 0 C-3.50907189 -1.24546405 -2.58919267 -0.7767578 0 0 Z " fill="#1D1D1D" transform="translate(817,251)"/>
<path d="M0 0 C22.44 0 44.88 0 68 0 C69.24546405 2.49092811 68.7767578 3.41080733 68 6 C68.99 6.33 69.98 6.66 71 7 C71.495 10.465 71.495 10.465 72 14 C70 11 70 11 69 8 C66.50240018 6.30117552 66.50240018 6.30117552 64 5 C64.33 4.01 64.66 3.02 65 2 C43.55 1.67 22.1 1.34 0 1 C0 0.67 0 0.34 0 0 Z " fill="#A71512" transform="translate(319,165)"/>
<path d="M0 0 C8.25 0 16.5 0 25 0 C24.67 0.66 24.34 1.32 24 2 C23.32453125 1.98839844 22.6490625 1.97679687 21.953125 1.96484375 C21.06109375 1.95582031 20.1690625 1.94679688 19.25 1.9375 C18.36828125 1.92589844 17.4865625 1.91429687 16.578125 1.90234375 C14.0709392 1.90266514 14.0709392 1.90266514 12 2.53125 C9.4507064 3.12874069 7.34301765 2.86956788 4.75 2.5625 C3.85796875 2.46066406 2.9659375 2.35882813 2.046875 2.25390625 C1.37140625 2.17011719 0.6959375 2.08632813 0 2 C0 1.34 0 0.68 0 0 Z " fill="#030D0E" transform="translate(345,461)"/>
<path d="M0 0 C0.33 0 0.66 0 1 0 C1 1.98 1 3.96 1 6 C8.92 5.505 8.92 5.505 17 5 C17.33 3.35 17.66 1.7 18 0 C18.33 0 18.66 0 19 0 C19.1875 2.875 19.1875 2.875 19 6 C15.13209648 8.57860235 12.23386085 8.01114505 7.8125 7.625 C7.06291016 7.56828125 6.31332031 7.5115625 5.54101562 7.453125 C3.69323441 7.31189331 1.846488 7.15723833 0 7 C0 4.69 0 2.38 0 0 Z " fill="#181919" transform="translate(610,880)"/>
<path d="M0 0 C0.33 0 0.66 0 1 0 C1 8.58 1 17.16 1 26 C-0.98 26.33 -2.96 26.66 -5 27 C-6.875 25.5625 -6.875 25.5625 -8 24 C-5.36 24 -2.72 24 0 24 C0 16.08 0 8.16 0 0 Z " fill="#010E0E" transform="translate(371,481)"/>
<path d="M0 0 C2.97343996 1.02532413 3.99860466 1.99797917 5.8125 4.625 C7.39710361 9.12861027 7.12376774 11.35509333 6 16 C3.9375 18.5 3.9375 18.5 2 20 C1.34 19.67 0.68 19.34 0 19 C0.66 18.34 1.32 17.68 2 17 C4.11410237 13.82884645 4.57935612 11.80502818 4.40625 8.00390625 C3.73253364 4.68067073 2.10178637 2.62723297 0 0 Z " fill="#E31614" transform="translate(610,416)"/>
<path d="M0 0 C0.598125 0.33 1.19625 0.66 1.8125 1 C4.05386471 2.20787988 4.05386471 2.20787988 7 2 C7 2.66 7 3.32 7 4 C7.66 4.33 8.32 4.66 9 5 C6.375 6.1875 6.375 6.1875 3 7 C-0.375 5.625 -0.375 5.625 -3 4 C-3 3.34 -3 2.68 -3 2 C-2.01 2 -1.02 2 0 2 C0 1.34 0 0.68 0 0 Z " fill="#CC2321" transform="translate(736,723)"/>
<path d="M0 0 C1.21236328 0.04060547 1.21236328 0.04060547 2.44921875 0.08203125 C3.06410156 0.11683594 3.67898438 0.15164063 4.3125 0.1875 C4.3125 0.5175 4.3125 0.8475 4.3125 1.1875 C1.6725 1.5175 -0.9675 1.8475 -3.6875 2.1875 C-4.0175 4.1675 -4.3475 6.1475 -4.6875 8.1875 C-4.0275 8.1875 -3.3675 8.1875 -2.6875 8.1875 C-2.3575 9.1775 -2.0275 10.1675 -1.6875 11.1875 C-6.5625 9.3125 -6.5625 9.3125 -7.6875 8.1875 C-8.14826844 3.81019984 -8.14826844 3.81019984 -6.46484375 1.53515625 C-4.16667456 -0.2074116 -2.84893333 -0.12386667 0 0 Z " fill="#2B2C2C" transform="translate(543.6875,852.8125)"/>
<path d="M0 0 C0.33 0 0.66 0 1 0 C1.30769231 8 1.30769231 8 -1 11 C-3.125 11.75 -3.125 11.75 -5 12 C-5.33 11.01 -5.66 10.02 -6 9 C-4.72641268 7.28724465 -3.38576923 5.62332967 -2 4 C-1.29114106 2.68861096 -0.60543548 1.36222983 0 0 Z " fill="#CC2826" transform="translate(642,770)"/>
<path d="M0 0 C3.37503669 1.1858237 5.64722731 2.27573689 8 5 C4.75791433 4.64950425 3.38472296 4.43778819 1.1875 1.9375 C0.795625 1.298125 0.40375 0.65875 0 0 Z M-18 1 C-12.06 1 -6.12 1 0 1 C0 1.33 0 1.66 0 2 C-5.94 2 -11.88 2 -18 2 C-18 1.67 -18 1.34 -18 1 Z " fill="#1B1B1A" transform="translate(811,227)"/>
<path d="M0 0 C1.66611905 -0.042721 3.33382885 -0.04063832 5 0 C6 1 6 1 6.0625 4.0625 C6.041875 5.031875 6.02125 6.00125 6 7 C5.01 7.33 4.02 7.66 3 8 C1.92474806 5.34771188 0.90543849 2.71631546 0 0 Z " fill="#D11A15" transform="translate(286,339)"/>
<path d="M0 0 C0.85178626 2.38500154 1.09806909 3.6665651 0.375 6.125 C-1.41247034 8.56245955 -3.1632534 9.10418528 -6 10 C-4.6302836 6.00499382 -2.74277578 3.19990508 0 0 Z " fill="#232323" transform="translate(571,612)"/>
<path d="M0 0 C0.66 0.33 1.32 0.66 2 1 C1.09373216 2.2989839 0.17450463 3.58893167 -0.75 4.875 C-1.51570312 5.95394531 -1.51570312 5.95394531 -2.296875 7.0546875 C-4.07503547 9.08570565 -5.52701607 9.97855012 -8 11 C-6.63629701 8.00779732 -5.05091917 5.70973471 -2.875 3.25 C-2.33617187 2.63640625 -1.79734375 2.0228125 -1.2421875 1.390625 C-0.62730469 0.70226562 -0.62730469 0.70226562 0 0 Z " fill="#1A1A1B" transform="translate(640,593)"/>
<path d="M0 0 C2 2 2 2 2.046875 4.09375 C1.94890625 4.8878125 1.8509375 5.681875 1.75 6.5 C1.66234375 7.2940625 1.5746875 8.088125 1.484375 8.90625 C1 11 1 11 -1 13 C-2.0070238 7.96488101 -1.97387813 4.76052962 0 0 Z " fill="#202020" transform="translate(564,622)"/>
<path d="M0 0 C5.28 0 10.56 0 16 0 C17 4 17 4 16.0625 6.25 C15.5365625 7.11625 15.5365625 7.11625 15 8 C15 6.02 15 4.04 15 2 C9.72 2 4.44 2 -1 2 C-0.67 1.34 -0.34 0.68 0 0 Z " fill="#010D0D" transform="translate(356,523)"/>
<path d="M0 0 C0.33 0 0.66 0 1 0 C1.22171552 2.60365928 1.42784859 5.20696493 1.625 7.8125 C1.68945312 8.55048828 1.75390625 9.28847656 1.8203125 10.04882812 C2.2265625 15.66015625 2.2265625 15.66015625 0 19 C0 18.34 0 17.68 0 17 C-0.99 16.67 -1.98 16.34 -3 16 C-2.34 16 -1.68 16 -1 16 C-0.67 10.72 -0.34 5.44 0 0 Z " fill="#1B1B1B" transform="translate(642,634)"/>
<path d="M0 0 C2.97 0.495 2.97 0.495 6 1 C5.58427734 1.77923828 5.58427734 1.77923828 5.16015625 2.57421875 C3.19266733 6.36216005 1.53662611 9.70699113 1 14 C0.67 14 0.34 14 0 14 C0.09539062 13.30132812 0.19078125 12.60265625 0.2890625 11.8828125 C0.39992188 10.97273438 0.51078125 10.06265625 0.625 9.125 C0.79902344 7.76761719 0.79902344 7.76761719 0.9765625 6.3828125 C0.98429687 5.59648437 0.99203125 4.81015625 1 4 C0.34 3.34 -0.32 2.68 -1 2 C-0.67 1.34 -0.34 0.68 0 0 Z " fill="#E21815" transform="translate(359,316)"/>
<path d="M0 0 C-4.72194167 3.77755334 -9.25928072 3.30096975 -15 3 C-15.33 2.34 -15.66 1.68 -16 1 C-12.7 1.33 -9.4 1.66 -6 2 C-6 1.34 -6 0.68 -6 0 C-3.50907189 -1.24546405 -2.58919267 -0.7767578 0 0 Z " fill="#2C2C2D" transform="translate(817,251)"/>
<path d="M0 0 C0.33 0.66 0.66 1.32 1 2 C1.99 2.33 2.98 2.66 4 3 C4 3.66 4 4.32 4 5 C6.31 5 8.62 5 11 5 C11 5.33 11 5.66 11 6 C7.37 6 3.74 6 0 6 C-0.33 4.35 -0.66 2.7 -1 1 C-0.67 0.67 -0.34 0.34 0 0 Z " fill="#C50F0E" transform="translate(606,806)"/>
<path d="M0 0 C0.99 0.495 0.99 0.495 2 1 C2 1.99 2 2.98 2 4 C2.99 4.33 3.98 4.66 5 5 C6.6875 6.5625 6.6875 6.5625 8 8 C7.67 8.99 7.34 9.98 7 11 C1.21538462 6.81538462 1.21538462 6.81538462 0.125 2.6875 C0.08375 1.800625 0.0425 0.91375 0 0 Z " fill="#CA2422" transform="translate(351,793)"/>
<path d="M0 0 C1.32 1.65 2.64 3.3 4 5 C2.9171875 4.8453125 2.9171875 4.8453125 1.8125 4.6875 C-2.12041589 5.12449065 -3.46321923 7.10082197 -6 10 C-6.66 9.67 -7.32 9.34 -8 9 C-5.36 6.03 -2.72 3.06 0 0 Z " fill="#E11916" transform="translate(697,351)"/>
<path d="M0 0 C0.66 1.32 1.32 2.64 2 4 C-2.5 8 -2.5 8 -7 8 C-6.02133662 6.85373678 -5.04205413 5.70800212 -4.0625 4.5625 C-3.51722656 3.92441406 -2.97195313 3.28632812 -2.41015625 2.62890625 C-1.63204305 1.73008851 -0.84063472 0.84063472 0 0 Z " fill="#1A1A1B" transform="translate(427,890)"/>
<path d="M0 0 C0.66 0 1.32 0 2 0 C3.83691257 3.78187881 4.15837626 5.94568308 3 10 C1.00902154 7.01353231 0.05875074 4.40312738 -1 1 C-0.67 0.67 -0.34 0.34 0 0 Z " fill="#1A1A1A" transform="translate(433,620)"/>
<path d="M0 0 C1.98 0 3.96 0 6 0 C5.34 2.97 4.68 5.94 4 9 C3.67 9 3.34 9 3 9 C2 6 1 3 0 0 Z " fill="#E41816" transform="translate(699,350)"/>
<path d="M0 0 C0.99 0.33 1.98 0.66 3 1 C2.360625 1.2475 1.72125 1.495 1.0625 1.75 C0.381875 2.1625 -0.29875 2.575 -1 3 C-1.12375 3.66 -1.2475 4.32 -1.375 5 C-1.58125 5.66 -1.7875 6.32 -2 7 C-5.0625 8.25 -5.0625 8.25 -8 9 C-7.04270084 7.87411986 -6.08412105 6.7493285 -5.125 5.625 C-4.59132813 4.99851563 -4.05765625 4.37203125 -3.5078125 3.7265625 C-2.38567993 2.44163349 -1.20628025 1.20628025 0 0 Z " fill="#E31916" transform="translate(625,248)"/>
<path d="M0 0 C1.22589844 0.29197266 1.22589844 0.29197266 2.4765625 0.58984375 C3.41628906 0.82380859 3.41628906 0.82380859 4.375 1.0625 C4.045 1.7225 3.715 2.3825 3.375 3.0625 C-3.25 2.3125 -3.25 2.3125 -6.625 0.0625 C-3.99249612 -1.25375194 -2.82320944 -0.68563658 0 0 Z " fill="#242424" transform="translate(349.625,581.9375)"/>
<path d="M0 0 C2 3 2 3 1.75 6.4375 C1.13121575 9.3767252 0.52580857 11.45698571 -1 14 C-2.12029814 8.51053913 -1.79217969 5.16569441 0 0 Z " fill="#2A2B2A" transform="translate(722,280)"/>
<path d="M0 0 C0.33 0.66 0.66 1.32 1 2 C0.34 3.65 -0.32 5.3 -1 7 C-4.63 6.67 -8.26 6.34 -12 6 C-12 5.67 -12 5.34 -12 5 C-10.01432292 4.77213542 -8.02864583 4.54427083 -6.04296875 4.31640625 C-3.80603607 4.02829265 -3.80603607 4.02829265 -1 3 C-0.67 2.01 -0.34 1.02 0 0 Z " fill="#E21813" transform="translate(531,489)"/>
<path d="M0 0 C0.66 0.33 1.32 0.66 2 1 C0.50902342 4.7952131 -1.75700849 6.61042731 -5 9 C-5 5 -5 5 -2.5 2.25 C-1.675 1.5075 -0.85 0.765 0 0 Z " fill="#1E1F1F" transform="translate(478,184)"/>
<path d="M0 0 C0.33 0 0.66 0 1 0 C1 2.64 1 5.28 1 8 C1.66 8.33 2.32 8.66 3 9 C1.68 10.32 0.36 11.64 -1 13 C-1.33 12.34 -1.66 11.68 -2 11 C-1.67 10.34 -1.34 9.68 -1 9 C-0.77532169 7.46331135 -0.59203195 5.92031946 -0.4375 4.375 C-0.35371094 3.55773437 -0.26992188 2.74046875 -0.18359375 1.8984375 C-0.12300781 1.27195312 -0.06242188 0.64546875 0 0 Z " fill="#393839" transform="translate(643,881)"/>
<path d="M0 0 C0 0.33 0 0.66 0 1 C-1.43333021 1.39063507 -2.87192679 1.76198474 -4.3125 2.125 C-5.51326172 2.43824219 -5.51326172 2.43824219 -6.73828125 2.7578125 C-9 3 -9 3 -12 1 C-8.00439392 -1.83022097 -4.57262677 -0.76210446 0 0 Z " fill="#CA2322" transform="translate(378,705)"/>
<path d="M0 0 C-3.18762365 2.12508244 -5.26512223 2.5020163 -9 3 C-9.33 2.34 -9.66 1.68 -10 1 C-6.21812119 -0.83691257 -4.05431692 -1.15837626 0 0 Z " fill="#1E1E1E" transform="translate(621,677)"/>
<path d="M0 0 C3.03317287 2.02211525 3.85984646 2.67455219 5 6 C4.625 8.75 4.625 8.75 4 11 C1.54176828 7.31265242 0.98757384 4.30300029 0 0 Z " fill="#2D2D2D" transform="translate(305,538)"/>
<path d="M0 0 C2 2 2 2 4 5 C3.625 8.6875 3.625 8.6875 3 12 C0.97649676 8.96474514 0.67875982 7.80573798 0.375 4.3125 C0.30023438 3.50425781 0.22546875 2.69601562 0.1484375 1.86328125 C0.09945313 1.24839844 0.05046875 0.63351562 0 0 Z " fill="#E51916" transform="translate(309,437)"/>
<path d="M0 0 C0.99 0 1.98 0 3 0 C2.34 1.65 1.68 3.3 1 5 C0.34 5 -0.32 5 -1 5 C-1 6.65 -1 8.3 -1 10 C-1.33 10 -1.66 10 -2 10 C-1.85950482 8.52031676 -1.71245174 7.04125484 -1.5625 5.5625 C-1.48128906 4.73878906 -1.40007812 3.91507812 -1.31640625 3.06640625 C-1 1 -1 1 0 0 Z " fill="#3B3B3B" transform="translate(260,323)"/>
<path d="M0 0 C1.32 0.66 2.64 1.32 4 2 C-0.75 4.875 -0.75 4.875 -3 6 C-3.66 5.34 -4.32 4.68 -5 4 C-3.35 2.68 -1.7 1.36 0 0 Z " fill="#181818" transform="translate(741,228)"/>
<path d="M0 0 C0.66 0.33 1.32 0.66 2 1 C-0.64 3.64 -3.28 6.28 -6 9 C-6 6 -6 6 -3.5625 3.375 C-2.716875 2.59125 -1.87125 1.8075 -1 1 C-0.67 0.67 -0.34 0.34 0 0 Z " fill="#D9D9D9" transform="translate(530,844)"/>
<path d="M0 0 C0.66 0.33 1.32 0.66 2 1 C1.40049704 4.68266103 0.75241109 8.34543185 0 12 C-2 9 -2 9 -1.625 6.3125 C-1.41875 5.549375 -1.2125 4.78625 -1 4 C-0.34 4 0.32 4 1 4 C0.67 2.68 0.34 1.36 0 0 Z " fill="#262727" transform="translate(713,418)"/>
<path d="M0 0 C4.29 0 8.58 0 13 0 C10.75912483 2.24087517 10.09354547 2.66556265 7 3 C4.645752 2.411438 2.30657014 1.75407101 0 1 C0 0.67 0 0.34 0 0 Z " fill="#181717" transform="translate(418,862)"/>
<path d="M0 0 C-0.33 0.66 -0.66 1.32 -1 2 C-4.63 1.67 -8.26 1.34 -12 1 C-12 0.67 -12 0.34 -12 0 C-7.6835078 -0.76173392 -4.25566547 -1.16063604 0 0 Z " fill="#262727" transform="translate(405,622)"/>
<path d="M0 0 C0 0.33 0 0.66 0 1 C-1.1446875 1.185625 -1.1446875 1.185625 -2.3125 1.375 C-5.20267136 1.88102792 -5.20267136 1.88102792 -8 4 C-8.99 3.67 -9.98 3.34 -11 3 C-7.48550811 -0.37391222 -4.73940561 -0.27342725 0 0 Z " fill="#C92321" transform="translate(612,723)"/>
<path d="M0 0 C0.66 0.66 1.32 1.32 2 2 C1.625 5.625 1.625 5.625 1 9 C-1.35953094 6.64046906 -1.49141413 5.22104383 -2 2 C-1.34 2 -0.68 2 0 2 C0 1.34 0 0.68 0 0 Z " fill="#1A1B1A" transform="translate(695,489)"/>
<path d="M0 0 C1.73662334 3.22515763 2.8905928 6.51329166 4 10 C3.34 10.66 2.68 11.32 2 12 C0.70756464 7.8803623 -0.26252625 4.33168317 0 0 Z " fill="#E31815" transform="translate(304,415)"/>
<path d="M0 0 C0.66 0.66 1.32 1.32 2 2 C1.625 5.625 1.625 5.625 1 9 C-1.35953094 6.64046906 -1.49141413 5.22104383 -2 2 C-1.34 2 -0.68 2 0 2 C0 1.34 0 0.68 0 0 Z " fill="#1B1B1B" transform="translate(727,362)"/>
<path d="M0 0 C0.33 0.66 0.66 1.32 1 2 C1.66 2.33 2.32 2.66 3 3 C2.34 5.31 1.68 7.62 1 10 C-1.56687367 6.1496895 -0.83288724 4.41430237 0 0 Z " fill="#CB2724" transform="translate(558,738)"/>
<path d="M0 0 C-0.33 1.32 -0.66 2.64 -1 4 C-3.31 3.67 -5.62 3.34 -8 3 C-3.5 0 -3.5 0 0 0 Z " fill="#CD2826" transform="translate(596,704)"/>
<path d="M0 0 C1.4606285 2.64738916 2 3.89448334 2 7 C1.34 7.66 0.68 8.32 0 9 C-0.84454356 5.62182575 -1.10844919 3.32534757 0 0 Z " fill="#272727" transform="translate(714,311)"/>
</svg>
